/* XPM */
static char *_8eeaa841aa14f62fb1cd6de3bf04d14ttNDIXWXRtDRuStA[] = {
/* columns rows colors chars-per-pixel */
"50 50 97 2 ",
"   c #1E1B2D",
".  c #1E1D35",
"X  c #1F1D39",
"o  c #201C2D",
"O  c #211D36",
"+  c #201D38",
"@  c #301D36",
"#  c #1D2134",
"$  c #1D203A",
"%  c #24203B",
"&  c #212C39",
"*  c #35223A",
"=  c #3A2339",
"-  c #24333C",
";  c #3A353F",
":  c #452537",
">  c #4B2237",
",  c #422837",
"<  c #462539",
"1  c #492339",
"2  c #44293A",
"3  c #353D42",
"4  c #3A3D44",
"5  c #442D42",
"6  c #2F4747",
"7  c #2D4947",
"8  c #2F4749",
"9  c #2E4949",
"0  c #314546",
"q  c #304947",
"w  c #304648",
"e  c #304848",
"r  c #5B4951",
"t  c #545456",
"y  c #5E5957",
"u  c #604852",
"i  c #635B59",
"p  c #67605D",
"a  c #68605F",
"s  c #5C5A62",
"d  c #665C64",
"f  c #685D66",
"g  c #676263",
"h  c #6A6767",
"j  c #6F6C6D",
"k  c #726D6C",
"l  c #6D6D70",
"z  c #767676",
"x  c #797676",
"c  c #767975",
"v  c #787876",
"b  c #767579",
"n  c #797579",
"m  c #757979",
"M  c #797979",
"N  c #81697B",
"B  c #837C83",
"V  c #8F7F8E",
"C  c #7F878E",
"Z  c #868085",
"A  c #8A838B",
"S  c #8B848B",
"D  c #8C8290",
"F  c #9C8496",
"G  c #958B94",
"H  c #968A94",
"J  c #968897",
"K  c #968A97",
"L  c #988A95",
"P  c #968799",
"I  c #978998",
"U  c #968B99",
"Y  c #97899B",
"T  c #958A9B",
"R  c #928C98",
"E  c #988998",
"W  c #9A8999",
"Q  c #849496",
"!  c #859399",
"~  c #82939C",
"^  c #9496A4",
"/  c #8AA1A4",
"(  c #8DA3AF",
")  c #8DA2B1",
"_  c #92AFB7",
"`  c #9EACB7",
"'  c #9AAEBD",
"]  c #8EB4B6",
"[  c #93B1BB",
"{  c #93B2BA",
"}  c #97B0B9",
"|  c #91B3BE",
" . c #94B0BC",
".. c #95B0BC",
"X. c #97B1BC",
"o. c #9AB2BA",
"O. c #95B1C1",
/* pixels */
"K z + x ^ K K K P K z X O.K K K K K K b X c | I I K n + n | K K I I K z # Q I I U I G I P X x ..I I ",
"z z < I z z z z z z z 1 z z z z z z z z < I z z z z b < I z z z z z z z < B z z z z z c z < I z z c ",
"z i 6 E z z z z z z i 0 z z z z z z z i 6 I z z z z i 9 I z z z z z z i w Z x z z z z b z w E z z z ",
"z i 6 K z z z z z i i 0 z z z z z z z i < I z z z z i 9 I z z z z z i i 0 Z z z z z z z z < I c b z ",
"z i < E z z z z i b i < z z z x z n n i 9 L z z z n i < E z v z z z z i < B z z z z n b z 7 E z z z ",
"7 X + + 4 . X + w < X X : < : O + < < + + + < . + e O + + < O . X w < + + * < < % . < < 7 . . > , + ",
"..I I I I z + z K L P J z J P s z ..E I E I I . z ..E I L K c + z | I K I Z I I z c | I K K P K l z ",
"z z z z z E < } z z z z i z z N ..z z z z z z 1 z c z z z z K < o.z z z z i z z K } z z z z z z S z ",
"z z z z z z , I z z z i x z z d I z z z z z z 2 z z z z z z z , I z z z p B z z z I z z z b z z j m ",
"z z z z z i 8 I z z z z z z z u I z z z z z z 8 z z z x z z i 0 I z z b b z x z i E z z z z c z y n ",
"z z z z z i 8 I z z z z z z b r I z i z z z b 9 z z z x z x i 7 E z z z z z z x i I b i z z z z y n ",
"K i x i i < X b c c x i i i i * z I b i i i i $ z E d v i i 1 . x E z c i i i i : z E z i i i i = n ",
"E E z + / I I I E E z . ' L K I I E I b + M { I I E F z + z U I I I E z + ~ I I I R I E R + z o.I I ",
"z x E < C z z z z x L < b x z z b z b I < ..c z m z z I < ..c b z z n E < ! b z z z z z z < ..z z z ",
"z z z < B z z z b z z < z z z z z z b z < I z z z z z z < I z z z z z z < Z z z z z z z z < I z z b ",
"z z i < B z z z z z i 0 z z z z x z z i < E z z z z z i < I z z z z z i 7 Z z z z z z z z < I z z z ",
"z z i 6 B z z z z z i 9 z z z z z z z i 6 I z z z z z i 0 I z z z z z i e Z z z z z z z z w I z z z ",
"z z i < B z z z z z i w z z z z z z b i < I z z z z b i < I z z z z z i w Z z z z z z z z < I z i z ",
"i i < + A z i i i i < + I z z k i i i < + z I i i i i < + z z i i i i < + Z z z z i i i y . z L z i ",
"< < + + = + + $ 0 < + X w , 2 % + 7 6 + + + 9 , . < , + + . . + + w 2 X + - 1 , . . 8 8 2 % + 8 < + ",
"c z i z z I < } x z z z z z z N ..z z z z z z z z z z i z z E < ..z z z z z z z K } z z z z z z z z ",
"z z z i z z < I z z z z z z z f K z z z z z z z z z z z i z z < I z z z z z z z z I z z z z z z z z ",
"z c z z c i 9 I z z z z z z z t E z z z z z z z z z z z c c i 8 I b z z b z c z i K z z z z z b z z ",
"z i z i i , O n n z z i i i i = b K z z i z i i i z a c i i : . z K z c i h i i : b K z z y z i i i ",
": 7 7 < 3 + + . < 6 6 7 1 < 7 + X : 6 6 6 8 6 7 X < 7 0 < < + + + < 8 6 6 ; < 6 + + < w 6 6 6 6 2 . ",
"K z X z | K E P I L z + ..K I E J K K B X z ..I I I L + z ..I E L K I z + z I K I I I E I X z ..I I ",
"z K : } z z z z z z K < z z z z z z z A < { z z c z n < { z z z z z z K < ` z z z z z z z < | z z z ",
"z i 0 K z z z z z z i 6 z z z z z z z g 6 I z z z z z 8 I z z z z z z i 0 K z z z z z z c w I z z z ",
"z i 7 I z z z z c i i w z z z z z z z g < E z z z z x 7 I z z z z z i i 6 K z z z z z z z < I z z z ",
"z i < I z z z z i z i < z z z z z z z g 7 I z z z z x < I z z z z z z i < K z z z z z z z 8 I z z z ",
"0 + + + , O + . 9 < + + , < < + + < < & + + < . + 6 5 + . < # % . 6 < O + o , < + + , < 7 X . < < + ",
"..L I E L z . z I I E I z L I z z ..E P I I I . z ..I I I I z . z ..K L K K I L z l O.P I I I I z z ",
"z z z z z J : } z z z z i z z K ' z z z z z z < z z z z z z K < ..z z z x i z z J ( z z z z z z P m ",
"z z z z z z : J z z n i z z z b R z z z z z b 2 z z z z z z M < K z z b i J z z b V x z z z z z b n ",
"x z z z z i 6 J z z z z z z z i I z z z c z z 7 z z z z z z i 7 I z z z z z z z i V b z z z z z i n ",
"z z z z z i 6 K z z z z z z z i I z i c z z z 9 z z z z z z i 0 I z z z z z z z i V z i z z z z i z ",
"E i z i i < O z n z z i i i y < z K z p i i i . z I z z i i < + z K z z i i i i < l K z i i i i : x ",
", , . + O . O O : : + . : : 6 + + : 6 . + X < + + , 3 . + . o + + : < + +   1 0 + . : w w + + 1 + + ",
"n z K 1 _ z n z z z J : z z z n z n x A : ..n z n z n K < ..m z z z z K : ] x z z n x z x 1 ..b z z ",
"z z z < L z z z z z z : z z z z z z z z < I z z z z z z < E z z z z z z : K z z z z z z z < I z z z ",
"z z i : K z z z z z i 6 z z z z z z z g 2 E z z z z z i , L z z z z z i 0 K z z z z z z z 1 K z z z ",
"z z i 6 K z z z z z i 0 z z z z z z z g 6 I z z z z z i w K z z z z z i 0 K z z z z z z z 6 J z z z ",
"z z i < K z z z z z i 6 z z z z x z x h , E z z z z z i , P z z z z z i 6 K z z z z z z z > K z i z ",
"i i < O z z i i i i : + J z z z i i i 2 + z I i i i i < + x x i i i i : + z z z z i i i i + z P n i ",
"< : . . O O + + 0 : . . 0 : : O . 6 6 @ . . 0 : + : : + . . + + + 0 < . . . < : . + 8 0 : . . 0 : + ",
"z z i z x P 1 ..x z z z z z z L ..x z z z z z z z z z i z z L < ..x z z z z z z E ) n z z z z z z z ",
"z z z i z z : J z z z z z z z z J z z z z z z z z z z z i z z < K z z z z z z b z A z z z z z z z z ",
"z z z z z i 0 J z z z z z z z i K z z z z z z z z z z z z z i e K z z z z z z n i D z z z z z z z z ",
"z z z z z i 0 K z z z z z z z i L z z z z z z z n z z z z z y 9 P x z z z x z z i D b z z z z z z z ",
"> 6 7 < < . X . 1 9 8 9 < < 7 $ . < 8 w 7 w 7 7 + < 9 8 < < . X X < 8 w 9 0 > 7 X X : w 9 9 e 9 < X "
};
