/* XPM */
static char *result[] = {
/* columns rows colors chars-per-pixel */
"50 50 255 2 ",
"   c #060505",
".  c #090505",
"X  c #090708",
"o  c #08090B",
"O  c #110F01",
"+  c #110B0D",
"@  c #140A12",
"#  c #181612",
"$  c #2C0D01",
"%  c #360D01",
"&  c #291505",
"*  c #351505",
"=  c #251912",
"-  c #2C1F16",
";  c #261919",
":  c #2B1D19",
">  c #321B11",
",  c #29231B",
"<  c #362719",
"1  c #3C3012",
"2  c #2D1B27",
"3  c #1B2224",
"4  c #252626",
"5  c #282827",
"6  c #29262B",
"7  c #2C2C2D",
"8  c #2E2F2D",
"9  c #352927",
"0  c #3B3525",
"q  c #242D32",
"w  c #2E2D31",
"e  c #28363A",
"r  c #383737",
"t  c #373936",
"y  c #3C3B3B",
"u  c #4A1A04",
"i  c #571C02",
"p  c #481216",
"a  c #641117",
"s  c #46280B",
"d  c #4F2B0D",
"f  c #57340A",
"g  c #482B16",
"h  c #483518",
"j  c #563818",
"k  c #6D3112",
"l  c #683818",
"z  c #482325",
"x  c #453725",
"c  c #4B3B23",
"v  c #56392A",
"b  c #463C37",
"n  c #6C2C28",
"m  c #3C4337",
"M  c #5B4418",
"N  c #6E4914",
"B  c #4D4429",
"V  c #554827",
"C  c #54452C",
"Z  c #4B4634",
"A  c #534635",
"S  c #4B5134",
"D  c #684926",
"F  c #6A532F",
"G  c #745626",
"H  c #77573A",
"J  c #52643C",
"K  c #766539",
"L  c #293B43",
"P  c #383C45",
"I  c #273168",
"U  c #423F42",
"Y  c #384448",
"T  c #29594E",
"R  c #3C4A55",
"E  c #25575A",
"W  c #3B546B",
"Q  c #424042",
"!  c #46494C",
"~  c #534F48",
"^  c #4E4C53",
"/  c #484759",
"(  c #534C56",
")  c #554F59",
"_  c #585654",
"`  c #595A5F",
"'  c #6F5B4B",
"]  c #4E6451",
"[  c #796746",
"{  c #6E6E57",
"}  c #4B5868",
"|  c #5E5962",
" . c #655666",
".. c #625A64",
"X. c #4A6574",
"o. c #6B6B6A",
"O. c #727169",
"+. c #777877",
"@. c #7A7C75",
"#. c #7C7D7B",
"$. c #AC1512",
"%. c #912918",
"&. c #A3211B",
"*. c #901127",
"=. c #8C3C28",
"-. c #B5282D",
";. c #CE1415",
":. c #CE3018",
">. c #CA182F",
",. c #D62B31",
"<. c #914D11",
"1. c #B44D03",
"2. c #98781A",
"3. c #B0680F",
"4. c #8B532E",
"5. c #AF562F",
"6. c #896638",
"7. c #937032",
"8. c #AE7327",
"9. c #D16F12",
"0. c #DC5520",
"q. c #CF6F35",
"w. c #D52053",
"e. c #825E40",
"r. c #846749",
"t. c #997849",
"y. c #8F7050",
"u. c #AD7454",
"i. c #89766E",
"p. c #D87849",
"a. c #E7784A",
"s. c #78906C",
"d. c #788073",
"f. c #7A8078",
"g. c #B79928",
"h. c #CD8D0A",
"j. c #CA9508",
"k. c #DA9715",
"l. c #D8A218",
"z. c #E5AC16",
"x. c #CE932E",
"c. c #D8AB32",
"v. c #EBB223",
"b. c #DBC43A",
"n. c #EAC13C",
"m. c #968359",
"M. c #B99049",
"N. c #A78658",
"B. c #B98A58",
"V. c #BB9559",
"C. c #B8A350",
"Z. c #9D8666",
"A. c #908A78",
"S. c #AE8D6E",
"D. c #BB9868",
"F. c #B99A78",
"G. c #87AA71",
"H. c #BAA673",
"J. c #CA8F4C",
"K. c #C48B56",
"L. c #C6955A",
"P. c #E1864C",
"I. c #CCAE4E",
"U. c #E3BC4C",
"Y. c #C88F65",
"T. c #C59B6A",
"R. c #C89B74",
"E. c #E59B75",
"W. c #C8A269",
"Q. c #DAA66C",
"!. c #C7A776",
"~. c #D8A974",
"^. c #C9B37D",
"/. c #D6B876",
"(. c #E8D34C",
"). c #DBC96F",
"_. c #244F89",
"`. c #527288",
"'. c #B93F9E",
"]. c #AC458F",
"[. c #827C82",
"{. c #E14BC6",
"}. c #1E87B7",
"|. c #7A948B",
" X c #579AB6",
".X c #6CA4AD",
"XX c #2BA3E6",
"oX c #44A1DE",
"OX c #6DB8D2",
"+X c #72C4EA",
"@X c #838483",
"#X c #878987",
"$X c #888D87",
"%X c #89868A",
"&X c #8A8A8A",
"*X c #91908C",
"=X c #979698",
"-X c #9C9C9B",
";X c #AA968D",
":X c #94AA97",
">X c #9DA39B",
",X c #BBAB87",
"<X c #B1B28A",
"1X c #A4A49B",
"2X c #B5A997",
"3X c #A19CA2",
"4X c #96ACAB",
"5X c #A2A3A2",
"6X c #A9AAA8",
"7X c #B4ABA7",
"8X c #B2B3AE",
"9X c #B9B9B5",
"0X c #BCBCBB",
"qX c #C7AA85",
"wX c #C8B889",
"eX c #D5B887",
"rX c #D6A497",
"tX c #D1B495",
"yX c #E6B78F",
"uX c #CABAAA",
"iX c #AACB95",
"pX c #9EC2A5",
"aX c #A9C1A9",
"sX c #B7C3BD",
"dX c #BDC2BC",
"fX c #D1C594",
"gX c #D9C396",
"hX c #E8CD93",
"jX c #DAC8A5",
"kX c #CDC9B0",
"lX c #D6C8B6",
"zX c #E6CCA6",
"xX c #E8D7A8",
"cX c #EBD1B3",
"vX c #E8DAB6",
"bX c #EBE0B0",
"nX c #BEBEC6",
"mX c #C1BEC2",
"MX c #B8DACA",
"NX c #8ED2EB",
"BX c #C2C3C2",
"VX c #C8C7C9",
"CX c #CCCEC9",
"ZX c #D2CFC9",
"AX c #D9D4C9",
"SX c #D8D4D4",
"DX c #E8DBC8",
"FX c #E6DDD7",
"GX c #D7E0CE",
"HX c #EDE5CD",
"JX c #E8E5D4",
"KX c #D8D7E2",
"LX c #CDEAE9",
"PX c #E6E6E7",
"IX c #F4E4E1",
/* pixels */
"[.#.[.@X@X[.f.@X@X@X[.#.@X@X|.[.#.[.@Xf.`.A.%Xi.@X[.|.#.[.f.[.|.[.@X@X[.f.@X@X|.i.`.%XA.f.[.|.[.@X@X",
"=X=X-X-X-X=X=X-X-X-X=X=X-X-X-X=X=X=X-X-X=X=X-X3X-X-X=X-X-X-X=X[.-X-X-X=X=X=X-X>X=X=X-X3X-X=X*X-X-X-X",
"#.+.@X%X#X%X@X@X&X$X%X@X@Xi.&X%X%X+.&X$X#.+.#.#.+.+.+.+.+.+.+.+.+.#.+.+.+.+.#.f.%X@X%Xi.@.+.+.#X#.+.",
"A B o o Z A X o X X . X o o o o X 0 4 , ; ; : , , : ; ; , 4 : v , A Z A B Z A Z w B Z A Z A B Z A B ",
"C C . o V C X X X X   X . X X X . x : > : : : - - - , : : - - C - C C C C C C C w A C A C C C A C C ",
"x h .   h c       X               < = = ; = = = = = = = : = = x : c c c x c v c 6 c c c c c h c c c ",
"V B X X C V X X X X X X X X X X . 0 : : : : : : > : : : : , : A : C V V V B C C 6 B C V C V B V C C ",
"t t r y t t t r y t t t r r y r r r r y r r r t y r t r r t r t t t t t t r y y r r r t y r t r y y ",
"y m P U Q m Y b U Q y m P U Z P m m b Y y y y U U y y m U Q Y b Y ! m m Y P U U m b P U Y m m y Q Q ",
"7 w w 8 w ^ w w w w w w w w q w w ( w w w w w w w w w w w @ O dXbXaXpXvX7.6.6.7.6.w 8 7 w @ @ + + + ",
"4 4 6 6 6 Q 4 4 6 4 4 4 6 6 2 4 6 Q 6 6 4 4 6 6 6 4 4 4 6 o + s.G.|.fXs.wXY ! T f 5 6 6 6 + + + + + ",
"..` | ..| 3X| | ..| | | | ..| | | 5X..| | | | ..| | | | | @ # 4XiX:XiXMXjXo.o.o.l ` | ..| + @ @ + + ",
"( ^ ) ) ) *X^ ( ) ( ( ^ ( ) ( ( ^ &X) ) ( ^ ( ) ( ( ( ( ) @ + |.|.kX|.fXT T E T T ^ ^ ) ( + + + + + ",
"` ` |  .| 3X` | ..| | ` | ..| | | 5X| | | ` | ..| | ` | ..@ + MXiXiXiXbXK r.r.r.6.| | .. .@ y.@ 3 + ",
"..| u 7.| 3X| | ..| | | |  .| | | 3X..| | | `  .| ..` ` o.+ + :XaXGXaXxXN N l k l ` |  .;.@ t.+ @ + ",
"^ ~ u $ / %XS./ ) ^ ^ : D.( ^ ( ! %Xy ) qX! ^ ( ( = # ^ ^ + # s.aXG.G.wX8.3.h.3.N.^ ( b.iXJ.qXA.o.+ ",
"x ( xX| AX=XLX4 ;XPXVXb z  .|  .y.*Xi.l.jX| q._ F 0.:.A.{ w 9 $XCXiXG V N.N w ^.d Q.y./.AX X< jXuX+ ",
"v ZX$.f 9Xi.i.J , ' g ' u / / U % 7X# ;Xj f T.2XuXY.Y.fXfXfX^.A.lXlXAXf AXg gXL.lXL.&.^ y.qXAX*X..+ ",
"IXu p bXK 6 = / 1Xe $ rXS.9 MXuXhXA.b f < x 5.v.Q.DX& -.n z z 9XnXnXj W.!.qXcX' zXc ;.b i.T.B...o.dX",
";X~.(.1 ).0 P.m 5 ;._.r.Z.mX0XmX=.<.hXE.yX!. XqXF.8X, S.Q x z 9XkXBXZ.9Xh /.tXmX< Q.eXQ.cXR.r 0.=.t.",
"!.,XqXK.wXqX5.5 D.f f h 2X1X>X-X^.y.).k N <.y.M & ; @ qX;XZ.Z.=X>X5Xg h kXx.u.I.^.h N.d D.;XZ :.:.>X",
"& lXN 5 hXzXgXm lXS PX0 AXi.d.@.h 6.bXU D.2.W.x gX* c.= Z V ;X@.#.f.N.wXN.< SXF ;.q /.tXe.F T.hXM f.",
"& < & l.1. X{ I 2 x SX< # 6X6X6Xw.w.lXV.*.n $.z qXu u uXh u d 1X5X6XS m.3.d <.N &.K.R p H O.kXlX=X6X",
"AX~.{.v.u P.I.* * 9 j g 5 i.+.+.p.' `.7.U.2.- t.e.zXl n <.2Xf d.@.A.HXZ e 7.IX/.`.2 9 m { KXH N.W.d.",
"H ZXk.v.gXG fX& $ qXT.6.m.dXMX~.rXK.DXL 7.,XA t.7.a.0.W.;XK K 9X0XkXJXh e <XxX' z.< 2X{ 0 $XF B Y dX",
"ZXe j.U.}.E N.V.[ j.< d.1 1X>X-XD.<.D.C.z 9XB.s 8.x.H.d & D J.-X>XSXu M.O $.eX$ u >.' 9 wXG - y.j >X",
":. X XcXD.`.W A 2X1.9.E.0 i.f.+.e & $ M.J.KXh (.c n.7.R.Q.$ M O.#.7.T.~.zXQ.c u.R.8.>.x '.5.y.= V d.",
":..X+XyXfXZ W kXd l x E.5.8X6X5Xq m.DX8.x.AXM.uXL.c.. /.gXV.  4X5XI.L.g v L.gXp.l x.g.fX1 fXN.= >X6X",
"JXH.R.h . #.g 2Xv.v.j JX5.+.@.@.jX<.s hXF lXx A M xXD PXr.u.2.+.#.5 HXzXSXq., ;.$./.W.JXB vXW.jX, d.",
"DX-.&.U o.2XZ ^.v.v.z.rXW.kXdXR K g.5.$  XPX).n.U.S.PXd N.d c 9XBXQ F U JXzX,X;.H.F.2XHXK H.n g.DXdX",
"& t.F +.Y kXJ.s u.$.u.MX& 5X1Xh g.j.3.* % ^.' I.V.q 1 eXB.S.B.-X5XM M g.M.F.K.!.d , D wXs G s y.h >X",
"- lX6.4 o.8X`.DX,.E.$.;Xs f.U.h k.z.k.H.% SX0 %.gXB C D.C f 4 +.i.hXPX<.x.rXw V !.uXm.bXHXgXB h d.@.",
"kXF.t.y r 1Xi.tXr tXS., ;X6XI.l.s /.<.h $ j.1.$.gXN h eXh fXe >X6XX.9XKXu jX<.fXB.<X;Xp P H.x m.7X6X",
"M fX7XG G 7X{.t.r.gX5 k b i.f.xX& K 9.PXv <.DX: Q.% Q.P.R `.@.@.+.oX! % % * 3.Y w {.z PXO.{ R e f.d.",
"tXx *XqXl h K j IXGXc.!.u.mXMXq.4.z.k.kXF.DX[ y.! p qXp.  `.0X9XmXG ,Xr.2XxXU e Y 2Xe.rXG.m.e .XBXdX",
",XO 9 _.d O.c ' tX$ wXi N.1X-X2 j.j.~.O.B CXN.D.I h.H.qXr F.3X-X>X}.N wX0 . b ~ t kXa SX1 N., ;.>X>X",
"l 7 c D XXN % % O.l $ g f.#.+.h r.9 hXU.O.n -.P.z.9.> $ HXX.+.@.+.Z E *X8.tX/ 7.R A.8.NXk i v zXQ.d.",
"L.wXK.jXv fXu tXl gX$.&.6X8X6XSX> 1 h.j.f tXx q.l./.$ $ g X.6X5X6XJ.x.z N u.Y N.Y _ S OXL.eXY.a T.6X",
"v p 5 GX4XjXc [.xX= >.v 8 @.d.cXj R.8Xj F.IXR.bXf i * D.j xXd.@.d.vXSX6XX yXW c.* s L W.v.6.d xXi.f.",
"y U.b `.+Xy.*.(.H F.~.=.0XdXsX<.h.n ~.i B.r d 4.bX* & > JXJX0X9XuXX.~ [ b t.z.].i i > ,   0.eX!.BXsX",
"w j.8 X.Z.K N.M.K.AXM.q >X>Xy.f h I.K.DXM.,XK.,XB.. & $ B.< 3X3X:X^.1 q.g u M.].a J.m.V.j.8.^.s 5X>X",
"5 ~.5 gXY 1 f.w.qXGXR e @.@.xXvXgXhXY i yXw.Q.!.xXzX% u.9 xX+.+.@.hX).;.F l j +.%.c.{ H.z.l.Z.j @.@.",
"q 8 b d M 6.S.o.OXW q M 6X6X6X0 m @.y e t 9 kX5 @.d k i R.kX3X5X6X5.k c B.k cXg     9 { jX| C.&.8X6X",
"e e v xXN.o.2Xg NXr { { @.#.f.J AX*.vXr { /.N.b V cXzXIXyX> +.+.8.q.~.D.:.:.R.dXH H G D 7X8Xk &.#.#.",
"3 e hXtXK C 7Xf.eXiX5 m | MX0XKXo.~ bXxXB.~.A *XQ.nXR.i.v i.mXuXa.u.F.xX6.HXb x l.c.D f JXh PXW.BXdX",
"|.W 3 # m B A.` k ] J s.>X5X-X-.1XA.b g w L.e g O.2X8XZXu.y.3X3XZ.g D.} ,XuXh.n <.9.N jXY ~ V.*.>X>X",
"L e B.L.^.m o._ V.B.S 5 @.+.@.hXW.! A.JX6 ,.6 KX6 FXl 5.r.r.+.O.f.|.S X.T.zX7.vXFXPXuXbXy.F LXg.d.f.",
"nX0XkXVXBXBX0XdXVXdXmX0XBXVXBXmX0XBXVXBXmXnXMXVXBXmXuXmXVXBXmXMXBXVXBXnX9XMXVXuXMX9XmXVXBXnX9X9XVXVX",
"%X#X$X&X$X%X%X%X&X$X&X%X%X&X$X&X%X%X&X$X&X%X&X&X$X%X%X&X&X$X%X%X$X*X$X%X%X&X&X&X%X%X&X&X$X%X&X&X&X&X",
"%X#X%X%X$X%X#X%X&X$X&X%X&X&X$X%X#X&X%X$X%X%X&X&X$X%X#X%X&X$X%X#X$X&X$X&X@X&X&X$X%X$X&X&X&X%X@X&X&X$X"
};
