/* XPM */
static char *result[] = {
/* columns rows colors chars-per-pixel */
"50 50 256 2 ",
"   c #010101",
".  c #0A0302",
"X  c #030902",
"o  c #0D0A04",
"O  c #03040A",
"+  c #0B050C",
"@  c #02090B",
"#  c #0B0B0A",
"$  c #130201",
"%  c #130B05",
"&  c #180907",
"*  c #0A1506",
"=  c #19140B",
"-  c #040916",
";  c #160815",
":  c #0A1316",
">  c #1B1513",
",  c #161618",
"<  c #1C1B1A",
"1  c #290805",
"2  c #360602",
"3  c #281509",
"4  c #361708",
"5  c #2F0614",
"6  c #251A17",
"7  c #361916",
"8  c #0F2C0E",
"9  c #35310A",
"0  c #2A231A",
"q  c #35261B",
"w  c #030C27",
"e  c #091625",
"r  c #151B25",
"t  c #111332",
"y  c #2F132B",
"u  c #142936",
"i  c #262725",
"p  c #342927",
"a  c #293528",
"s  c #3A362C",
"d  c #2B2C36",
"f  c #352934",
"g  c #2D3435",
"h  c #353434",
"j  c #3A3837",
"k  c #490A05",
"l  c #4B110D",
"z  c #591715",
"x  c #6C0F11",
"c  c #4F2F11",
"v  c #6F3412",
"b  c #521A2D",
"n  c #47352A",
"m  c #4B3029",
"M  c #493B36",
"N  c #573935",
"B  c #722E2C",
"V  c #14461E",
"C  c #264E0A",
"Z  c #3C6F17",
"A  c #364734",
"S  c #1D662D",
"D  c #594B04",
"F  c #534C0C",
"G  c #664809",
"H  c #417D16",
"J  c #4B4239",
"K  c #564639",
"L  c #4D5434",
"P  c #694739",
"I  c #774B39",
"U  c #745032",
"Y  c #0E144E",
"T  c #13314D",
"R  c #2E3249",
"E  c #0D3D67",
"W  c #2A2872",
"Q  c #611B52",
"!  c #75355D",
"~  c #762C69",
"^  c #2C434B",
"/  c #32434F",
"(  c #397A41",
")  c #155075",
"_  c #305069",
"`  c #28577D",
"'  c #36636F",
"]  c #484747",
"[  c #524E4E",
"{  c #59534C",
"}  c #4A4C52",
"|  c #575555",
" . c #64554B",
".. c #69574B",
"X. c #715049",
"o. c #655955",
"O. c #5E605F",
"+. c #70674B",
"@. c #756458",
"#. c #585B67",
"$. c #6D5265",
"%. c #54646A",
"&. c #666766",
"*. c #746A69",
"=. c #6E7071",
"-. c #797878",
";. c #9C0E16",
":. c #A8151C",
">. c #B21212",
",. c #982F0D",
"<. c #8C1527",
"1. c #A71727",
"2. c #AE1D2C",
"3. c #85322C",
"4. c #D60C0F",
"5. c #C41618",
"6. c #E80406",
"7. c #F30106",
"8. c #ED0E16",
"9. c #DC2618",
"0. c #ED1B2A",
"q. c #F51429",
"w. c #D02334",
"e. c #856215",
"r. c #87502B",
"t. c #995B29",
"y. c #825537",
"u. c #B16A3D",
"i. c #C7520D",
"p. c #E4570A",
"a. c #D96514",
"s. c #FA7610",
"d. c #CC712E",
"f. c #E5752E",
"g. c #8B2F61",
"h. c #E5354A",
"j. c #8E6B55",
"k. c #996759",
"l. c #967C67",
"z. c #8E7171",
"x. c #847B78",
"c. c #DF596A",
"v. c #509315",
"b. c #57AE09",
"n. c #59A72A",
"m. c #2F9649",
"M. c #73956C",
"N. c #6EDF6F",
"B. c #AB8B19",
"V. c #AD9B31",
"C. c #E99413",
"Z. c #E1A51D",
"A. c #D1B427",
"S. c #E4BA2A",
"D. c #FDCD01",
"F. c #FAD209",
"G. c #F5CE1A",
"H. c #F8C72E",
"J. c #8B8D5C",
"K. c #AC8D42",
"L. c #90886B",
"P. c #988578",
"I. c #A98B75",
"U. c #CBB74F",
"Y. c #D09368",
"T. c #D9AB76",
"R. c #F6AF72",
"E. c #FADD54",
"W. c #F0D567",
"Q. c #2C318C",
"!. c #0D5E8F",
"~. c #195C97",
"^. c #396687",
"/. c #296E96",
"(. c #2755A4",
"). c #1476AE",
"_. c #1669B8",
"`. c #2E73A9",
"'. c #47689F",
"]. c #707B87",
"[. c #393FC0",
"{. c #493FE8",
"}. c #384BC9",
"|. c #3B49D8",
" X c #0C6BC3",
".X c #3A72D2",
"XX c #3B48E0",
"oX c #4745D6",
"OX c #9C1B88",
"+X c #AB5F93",
"@X c #8F6A83",
"#X c #CE6E88",
"$X c #EE6C8B",
"%X c #CF49B7",
"&X c #F232D5",
"*X c #FD2AE5",
"=X c #1882B6",
"-X c #3182B6",
";X c #588392",
":X c #70848B",
">X c #6D9AB6",
",X c #70A3B5",
"<X c #118BD3",
"1X c #2D8ACC",
"2X c #0596E5",
"3X c #0D95E7",
"4X c #3BB3E1",
"5X c #5AAADB",
"6X c #858484",
"7X c #9B968B",
"8X c #8D8E90",
"9X c #999B98",
"0X c #A89483",
"qX c #AC9790",
"wX c #B0A58F",
"eX c #BAAB98",
"rX c #9E9EA5",
"tX c #AAA8AB",
"yX c #B9A8A3",
"uX c #ADAFB2",
"iX c #CA9D8A",
"pX c #C6AB99",
"aX c #D4B692",
"sX c #EDB18D",
"dX c #D7B9A4",
"fX c #D2BBB4",
"gX c #F0AEB7",
"hX c #ABD4A1",
"jX c #E6D89A",
"kX c #D2C4B0",
"lX c #F7CBA8",
"zX c #EAD1AC",
"xX c #F8D4AD",
"cX c #E6C9B5",
"vX c #F7CBB5",
"bX c #ECD5B8",
"nX c #F4D4B7",
"mX c #BBBEC4",
"MX c #E3A6D1",
"NX c #ADC9D4",
"BX c #97D0EF",
"VX c #AAD3ED",
"CX c #9EE4FD",
"ZX c #B4EAF8",
"AX c #C8C5CA",
"SX c #D5D5D6",
"DX c #EAD3C7",
"FX c #F5D4C9",
"GX c #DCE4DB",
"HX c #F2E7D2",
"JX c #D4F0F6",
"KX c #E8E7E9",
"LX c #EDEEF2",
"PX c #E7F5F8",
"IX c #F7F8F7",
"UX c #FBFCFC",
/* pixels */
"                                                                                                    ",
"                                                                                                    ",
"                                                                                                    ",
"                                                                                                    ",
"    O O , h   M.$ = ,   d O 6X    ,       -.. -.O &.=.  d       O [   .   ] X ] .   [   6X  -.      ",
"    &.kXh zX+ y c.  dX  0 X I.    O   X   ] , & DX  vX+ cX  .   O iX  lX  <   . z   kX  =.&.  =     ",
"    M.W j 8   = >.*.A . `.X V .   . # 8X  K L.[ r A ..6X^     - @.O.X A   a   a | | :X  w.x &.BX    ",
"    X M.s UXUX,.i.4 D.X LX. ) ^ *.LX% K 3 zXc.yXIX+ LX/ n.b./ x.q.0.X HXX &Xo rXIX| |.pXx x $.J..   ",
"      N.. UXIXc a.. F.q IXk >Xk L.% vXZ.pXz.$ wX7X& ~ | b.b.X -.X q.@ @ 9 &Xc rXPXy R eXz x : X $   ",
"    ^.~.- .., m u.9XU ^. XK . 8Xi & 7 K.R.  o.@ -.h T     R.:   `   ].  J.~ O.D U d.LX  O o.l.b.    ",
"    t.; @ o.<   . > , zX~.& n u.- 3 L H N.< 3 ] > 6 # % X PX6Xi X.J ,   F ..U.F i.a.PXVX  o.UXb.>   ",
"    D.r UXUX5 -...X . UX`  .7 (.l.S.D IXAX=.6.] gXIXS m.% :.2.X.IXT.UX. *Xl.UX0X4.k   9X  X 6.+ ,   ",
"    D.% KXKX  . ..+   UX. P , /.e U.F IX$ =.4.  LXq S ( eX,.4 % w ; O o lXJ.# bX1 3   JXl.nX7.@.    ",
"    $ xX[.+ l.oX  nXX nX. 2.8.:X^   x.. f . @ . u @X  X eXvX6 @XN rX+ &X&X. O O j. .%.-.I.. $ O r   ",
"  ].7 PX(.x., w ~.yXh nX  FXHX>X>X. e O z 5 3 [ ) ;   e o ,X# > : J 1 D D   -.  : x iXP h VXX X X   ",
"  -.>.UX<.[ [ . C c K   nX1 7 0X X. 1XX $XB Q.Q.aXz.X 2X0 k.X SX* L.1 yXrXdX  IX+ M 1.sX. UXX * n.. ",
"    MXUXr.y.} * v.n . ..xX. o I.  > 1XM $X1 m 0XsXw.w.3XbX7.yX~.F.A.z z uX$ O     } X sXsXUXx 0 +   ",
"  . UXT 0 g ^.-Xb.#.< o.% . i | _ -.<X .&XUX*.ZXK.a &.'.UX6.IX_.3 U.5 2 m P.$X/   g ' 9Xo.= ,Xx A.  ",
"    CXqXC.f.DXHXT 2X: ;XT.z.+X] uX9XR s.l Y.O p.0 3X3X$ 2.0 . . cXcX4.4.$.; g.= I NXAX< ^.i JX+.F   ",
"    CX. f.v yXc 3 2Xd _.$ $.7X7 Z.e.0Xx x p.O F.X r 3Xp 2.& . . h & # s cXsXaX: 4 0 SXi UX. KXj.    ",
"    CX8Xd.v jXH.- nXg 2 ..@ R.l p $   o.@ 3.7 G.JX- _ & 3.wXw IX] $ $ ^.I : O Y -.a SXl.4 O 6 j.%.  ",
"    O pX=XE VXi O BX[ 5 8 r | 6 w . > P.[ PX0   R.@ ' #.< E =XB 6 0XP - ).E >X@ - e {.tXk . w & tX  ",
"  .   >.r B 8.nXnX  dXm  X: ^.3  Xu 7X6 < E.E.zX.XO | m = g.<XW c KX*.w.q.d j n Q.. W A.p Q gX.     ",
"    , 2 3   6.4.kX  % N A.! e @ . 1 p . 6 O V.c [.] o.J   *X    4 GX*.k k   n n - . ; F.+ ; xX+   O ",
"    X ^.h A tX~.a ) < X ' i j.  5X3 X xX& >Xq * t j rX. #.&X/ {.>Xf > 8 g.A 0 z z > { B.M.b i -     ",
"    e * g J . v 8 K V.O I.J *.J FX@.  KX] lXlXh 4 ; $.; ].&XI.6 7 9X  J g.zXZ SXtX$ wXxX0.q.h I.    ",
"    pXhX] mX. i.aXG F.7 UX=.>Xg IX+.C.F q 1 wXIXp z.@XX _.%X' $ h.8.kXgXg *XC UXUX. |.l q.w.X n.    ",
"      hX  &.~ s.  - M r.IXa.R p.% y.3 c L.c.  s O j.p   C v _   $ I ; + F.&XG.UXp.g #.d 0.w.X b.    ",
"    4X_.4X> R xX  O e.`. XKX  UX .AXo Z.W.fXSX8 PX| mXO.* DXI.u O   PX>XPXgXPX* q 6X; iX..= aXb.]   ",
"  B U bX| ; @.n nXDXIX4.~.bX] lX .B.+.R / N vXj vX6XhXV : JXi U y.- | L.xXdXxXb.nX  = BXo.; :Xz.@   ",
"  N A.q UX@ Q nXO . | 4.- X.< /.w D.S.uXuXkX;.A 5.M m.k.x :.dX* . O O *.&X+XUX% 7.$ NXVX  1 IXdXh   ",
"    A.l }.j X aX. . pX= , 7.%._.^   X % 1.  X q H.c m.% I.z xXO u 2   . Q $ r h p.p 3 ZXY.. 6.8 X   ",
"    l.zXO ].#.. [ h , 0X=.N 3 ].< @ ^   UX< n A R %.X ;X. '.J GX& P . I c @ u 3 `.i 4X7 # @.  ZXX   ",
"    B *.&. . .  d .   . @ jX0 2X' '.-Xb #Xf sX3 ].|.9XUXi P.& lX/ l . q z .   3 cX= y.y + w   J.yX  ",
"    ~ 2.i  .o.h X y.O   O f.>  Xo.# r l $X. oXJ *.; @.T yX8.5 KX= hX. KXq $   7X  % <.` UX=.- Z pX  ",
"  $ X 1.$  .x.* n.*.O lX[ s r 2X. = T K #Xn # nXm eX1 _.@ 7.l. XjXhX=.; c M 3 &   DX  p . %.R.E.+   ",
"  O uX1.6 _ * * ~.4X).L < q a  .7Xj T % ; -.IXVXn -.-.P p 7.GX XN `.1 OX-.GX#X] O ].X :XR n BXG.<   ",
"  I.CX1XC.aXxXK.: 3X8 jXr @Xz.2 2 6 8.9.X.a.@.H.c !.AXX.q.4 T nXUXI 6.X.m h #X3X  SXAXFXUXj *.H.<   ",
"  I.ZXiXs.dXU J : =Xq b 2 mXk 4 + z . X 0 2 i B.o ) dXP x & u t.j., vXM # 7X-.oX  % cXi.UX+ IXX     ",
"      UX1XX 0 3 & P.g 5 k 2 qXl T z u O   sX6 O _ o bXO - - <X9X| 0X; & T 2XN |.- `.- rX-X1XJXw O   ",
"    Y.>.) 3.b &.. 7X{ ` ) iX, * R , y.X.O.IX, R..X. >Xi aXsXm t ..9Xt 1.B <XBX|.mX$ + zX-XkXX.X     ",
"  } sX:.!.6.7.6X6   pX~.) 3 BXO JXh . K W.E.W.l.Y $.MXnX5 ~ c   , LX: 1.:.dXM FXu.O   G.-X*X  O     ",
"    sX:.} 5.5.O .   eX).) 7 BX  n I | < R.E.k.@ XXO. .AX1 y U     + 3 + ; dXn bXj.. X F.#.*X] .     ",
"      v.L.tXuX  X 2X      O _.  # $ 6 . j.o.K   |.    - Q %X  Y   n . ! ! . Z   R UX  P.  &X] .     ",
"      v.i tXtX  X O     O   sX  1   :   j  .    q   ,   &X&X  1   xX  ! !   i   X IX  7X  nX,       ",
"      O   IXUX        -X/.  &.  o . ..6   . & O ;X. . # OXOX  &   &.        X -     O ,.  T .       ",
"                            .                                                               .       ",
"                                                                                                    ",
"                                                                                                    ",
"                                                                                                    "
};
