/* XPM */
static char *_196b3a437664ca4aa320d46fcb861d3e3LFYXt6PRXQJxfq[] = {
/* columns rows colors chars-per-pixel */
"50 50 240 2 ",
"   c #0B0400",
".  c #090903",
"X  c #0D0E0B",
"o  c #140D04",
"O  c #180B02",
"+  c #120E09",
"@  c #151105",
"#  c #1C1306",
"$  c #14130D",
"%  c #1C130B",
"&  c #1C190C",
"*  c #1D1812",
"=  c #221808",
"-  c #2B1D0C",
";  c #311A05",
":  c #331E0C",
">  c #221B11",
",  c #271B18",
"<  c #301C15",
"1  c #29230C",
"2  c #392309",
"3  c #3A240D",
"4  c #2D2114",
"5  c #292618",
"6  c #342412",
"7  c #382516",
"8  c #352914",
"9  c #3A2A14",
"0  c #332B1B",
"q  c #3C2D1B",
"w  c #3B3118",
"e  c #3B311C",
"r  c #332D23",
"t  c #33212A",
"y  c #3C3224",
"u  c #393429",
"i  c #462A0B",
"p  c #46350D",
"a  c #54390C",
"s  c #422D13",
"d  c #472A16",
"f  c #422D1B",
"g  c #493717",
"h  c #45331D",
"j  c #4B341B",
"k  c #553516",
"l  c #543719",
"z  c #543C1B",
"x  c #5B3C1D",
"c  c #623C18",
"v  c #412E25",
"b  c #433423",
"n  c #493723",
"m  c #453A25",
"M  c #4D3A24",
"N  c #44392B",
"B  c #4C3B2A",
"V  c #533C24",
"C  c #583A24",
"Z  c #463C32",
"A  c #633E23",
"S  c #4E411B",
"D  c #59411B",
"F  c #62421C",
"G  c #694818",
"H  c #6B4A1E",
"J  c #74521E",
"K  c #4B402B",
"L  c #5C4324",
"P  c #54422C",
"I  c #5B462A",
"U  c #474135",
"Y  c #4B443C",
"T  c #564636",
"R  c #5D4B32",
"E  c #554B3B",
"W  c #5C4D3C",
"Q  c #624224",
"!  c #674925",
"~  c #644D2C",
"^  c #6C4C2B",
"/  c #734E28",
"(  c #6B5626",
")  c #6D522C",
"_  c #775429",
"`  c #7B5D2B",
"'  c #634D32",
"]  c #664D36",
"[  c #645234",
"{  c #6C5334",
"}  c #6A573B",
"|  c #6D553B",
" . c #735433",
".. c #795B35",
"X. c #74563B",
"o. c #745D3B",
"O. c #7C5B3A",
"+. c #7B612B",
"@. c #786139",
"#. c #7D623D",
"$. c #584D41",
"%. c #5C5648",
"&. c #674E44",
"*. c #675745",
"=. c #655B4C",
"-. c #6B5D4B",
";. c #745C42",
":. c #7D5C40",
">. c #685D54",
",. c #6A6149",
"<. c #7D6343",
"1. c #796549",
"2. c #6C6457",
"3. c #786A57",
"4. c #776D62",
"5. c #7B7467",
"6. c #835D2A",
"7. c #825D34",
"8. c #83652D",
"9. c #8B6736",
"0. c #83633C",
"q. c #856C3E",
"w. c #8D6B3A",
"e. c #946B38",
"r. c #987834",
"t. c #836443",
"y. c #896A48",
"u. c #8D7248",
"i. c #9A7647",
"p. c #826C52",
"a. c #866E56",
"s. c #926A55",
"d. c #837254",
"f. c #8D7454",
"g. c #89755B",
"h. c #937453",
"j. c #977B56",
"k. c #A27E51",
"l. c #8A7965",
"z. c #977D66",
"x. c #A67D62",
"c. c #AE8137",
"v. c #C8902D",
"b. c #9B8459",
"n. c #A88449",
"m. c #B48A48",
"M. c #B29744",
"N. c #A78758",
"B. c #B58C5B",
"V. c #B99559",
"C. c #BDA15D",
"Z. c #8C816D",
"A. c #988469",
"S. c #938574",
"D. c #958A79",
"F. c #988B78",
"G. c #A98B67",
"H. c #AC966B",
"J. c #B89866",
"K. c #A48E74",
"L. c #A89679",
"P. c #B79B78",
"I. c #BFA16E",
"U. c #CE9B4B",
"Y. c #C5995F",
"T. c #C9AE5A",
"R. c #CA9961",
"E. c #C8A66A",
"W. c #D7BB6B",
"Q. c #C5A472",
"!. c #CCAC7A",
"~. c #D1A971",
"^. c #DAAF75",
"/. c #948E87",
"(. c #A69986",
"). c #B19E84",
"_. c #BAA889",
"`. c #ABA194",
"'. c #ACA69B",
"]. c #B5A896",
"[. c #B2ADA8",
"{. c #C5A886",
"}. c #CCB188",
"|. c #D9B986",
" X c #C2AB92",
".X c #C3AD9F",
"XX c #C3B294",
"oX c #C8B699",
"OX c #D2B999",
"+X c #DABDA5",
"@X c #C2BDB5",
"#X c #D4C191",
"$X c #ECD38F",
"%X c #E8CF9A",
"&X c #E6D399",
"*X c #CBC5AC",
"=X c #D7C5A7",
"-X c #DFD5AC",
";X c #CCC5B7",
":X c #D8CAB5",
">X c #E8D5AB",
",X c #E8D4AD",
"<X c #F5D8A5",
"1X c #F0E8B6",
"2X c #F9E7BA",
"3X c #D0CFCC",
"4X c #D8D2C6",
"5X c #DEDDDB",
"6X c #EBDBC5",
"7X c #EDE1CB",
"8X c #F5E8CC",
"9X c #FFF7C7",
"0X c #EAE3D8",
"qX c #FAECD8",
"wX c #F9F0DF",
"eX c #DFE8E4",
"rX c #E6E6E6",
"tX c #EDEBE6",
"yX c #E7E8E9",
"uX c #EDEDEC",
"iX c #F5ECE3",
"pX c #F2EDEB",
"aX c #EDF1ED",
"sX c #FAF3E4",
"dX c #F4F3EE",
"fX c #FBF4EC",
"gX c #FDF8EA",
"hX c #E6ECF1",
"jX c #EDEEF2",
"kX c #F1EEF3",
"lX c #FAEDF2",
"zX c #EEF3F3",
"xX c #F3F3F3",
"cX c #FAF5F4",
"vX c #F5F9F5",
"bX c #FCFBF5",
"nX c #F3F5FA",
"mX c #FAF6FA",
"MX c #F6FBFA",
"NX c #FCFCFC",
/* pixels */
"NXuXNXxXxXNXyXNXxXNXxXcXNXuXNXyXNXxXpXNXdXbXtXNXxXdXbXiXNXaXbXxXxXNXxXNXuXNXzXxXNXxXNXdXNXdXxXNXyXMX",
"xXNXuXMXNXuXNXuXNXxXMXmXzXNXuXNXuXNXNXuXNXhXNXkXmXbXuXNXzXNXuXNXvXuXNXxXNXuXNXnXyXNXyXNXkXNXNXuXNXuX",
"NXyXNXxXxXNXrXNXuXNXxXzXNXtXNXrXNXxXuXNXfXbXiXS.W =.S.iXfXiXmXpXxXNXyXNXyXNXrXcXNXuXNXyXNXyXxXNX5XNX",
"xXNXpXNXvXjXNXxXNXuXcXMXxXNXdXNXpXbXvX4.b 9 K.3 6 q f } { M R 4XcXuXbXaXNXuXNXNXxXNXuXNXpXNXvXzXNXxX",
"NXjXNXxXcXMXxXNXzXvXcXzXmXkXMXmX0Xb 6 - 3 OXi s 7 q f C | } R C X.j.lXNXdXNXaXvXvXxXNXzXNXuXxXNXdXNX",
"cXxXcXNXcXxXnXxXxXMXcXcXnXnXdX$.: C L =X^ c / x ^ x z k ' [ <.0.i.P.N.(.vXNXvXaXnXcXnXcXvXvXcXxXxXnX",
"aXMXuXNXNXuXNXuXMXcXcXNXkX0XX.A k  XF G H Q c / N./ G H x i L L O.F.=Xy.3.sXNXnXxXNXuXNXkXNXvXkXNXuX",
"MXuXNXxXxXNXuXNXuXvXnXnX4XL +Xd L c 9XqX8X&XH 6.6.J 2X<X|.|.` k.w.<Xt. ._ t.cXxXNXdXNXuXNXuXxXNXyXNX",
"xXNXuXmXvXkXNXzXNXuXbX*X{ ^ A t.i P.N.I.!.G w.+.V.^.9.J 8.8.` n.i.2X) 1.oX^ O.xXuXNXtXNXuXNXvXuXNXaX",
"NXxXNXNXxXNXuXbXuXNXgXo.k C ^ h.G D b.&X!.C.$XC.M.r.V.E.8.r.H L Q D P.z ' k _ ] NXuXNXuXNXuXxXNXyXmX",
"xXNXuXNXNXaXNXxXNX0XW D ! x G.e.7._ u.H +.w.E.9XT.<X$XT.e.u.D z g f z <.X.V ..<.@XNXzXNXkXNXmXuXNXdX",
"NXuXNXuXxXNXyXNXpX].' k Q c Q 7./ / +.+.w.n.W.|.W.sX$Xc.` D ! z P j XX=XC q 0.0.L.dXNXuXNXuXxXNXuXNX",
"uXNXyXNXNXuXNXzXbX} ^ l A X.A  ...0.u.OX2X+X%XJ.W.-XE.w.q.F L g 7 8 n | { - y.9.^ `.yXNXuXNXMXzXNXxX",
"NXxXMXcXxXNXxXMX;X) 7.c x k ^ z.^ ) #.y.b.b.J.-XQ.~.i.q...@.~ n q 0 f z.J.; k 0._ *.MXnXNXxXxXcXjXNX",
"uXNXuXnXcXzXNXzX;._ i.k.s.C ;.z.;.| ) g.(.XXQ.V.2X|.j.t.<.@.{ L h v 0 3 -Xi k G./ | fXmXuXNXxXzXNXxX",
"NXxXNXcXxXxXcXiX{ 9.y.k :.l ).! o.o.A.;XvX8X>XI.b.V.-XoXL.o.z j 7 h 7 i p O 2 9. .' 0XcXMXcXnXcXxXcX",
"MXxXcXcXcXmXxXsX^ t.C h A / k I { #.#.oX]._.>X1X1X#Xi.9.J L +.~ 9 j i ,X3 > @ p V ~ z.nXcXcXnXcXcXNX",
"uXNXyXNXNXuXNX:X/ ' d f O.j.~ ] R <.,.3.&.g.@.@.@.N.( L 2 R S w 6 j n.+.9 = @ > L t.P MXuXNXMXuXNXyX",
"NXzXNXxXxXNXdX@Xh.-.A ^ j.C T B e b [ *.B T ~ I ( D f.b.p.j 9 : f ! { 2 < % $ # g.' $.xXNXuXxXNXyXNX",
"xXNXyXNXNXyXNX[.^ M C s. .L.i 0 e N b P B B [ P e g oXS p t.} { p z 2 M.N.O X % B T W NXuXNXMXuXNXxX",
"NXyXmXxXkXNXuX3X| C C B.B.XX[ w K T K h m m b q y K l - & & @ = 1 d.2 M.v.J.+ > $.E 3.xXNXuXxXNXyXNX",
"uXNXuXvXNXuXNX5XY M B R.` D o.f K W L 9 f V n V X.A.8 q & @ 4 # & L g r.v.U.n 5 B $.3XmXuXMXcXxXNXxX",
"NXpXNXvXxXNXjXlX$.] b O.2 [ 3 K w S R 3.K.K.l.V P P # M 4.4 & # o p g +.U.v.V.0 E $.nXjXNXkXxXNXyXNX",
"xXNXxXNXNXuXNXjXZ Z r d y.a 9 `.@ u y U u 0 y - *.q 9 B 4 5 # @ . S o.~ J c.E.8 &.$.yXMXuXNXmXuXNXaX",
"NXyXNXxXzXNXkXNX5.q < 3 A C u % B # = , > > 8 h.s 0 < q 4 # + . . j 1.m g S w y $.'.NXjXNXkXxXMXyXNX",
"cXNXxXcXnXvXcXxXbXN Y M f O   % *.0 y 0 q b b i P > > 0 o + . . - 8 g f.; 6 E Y >.dXxXcXcXcXvXMXvXNX",
"zXMXvXxXvXxXMXjXmXY N y + X . 5 O # $ , > $ * > 0 4.% O O + # f V (.9 d j R P 8 '.nXxXMXxXnXcXzXmXxX",
"NXuXmXcXxXNXuXNXzXNXT q   . O 3.o r 0 > # o X $ + O q I 7 h M K.  b y 0 @ & $.Y mXuXNXaXNXxXxXNXxXNX",
"xXNXzXcXmXuXNXyXNXuXrXr 5 * 5   5 > 8 8 8 4 8 s C L q 3 {.L.: V Q X.u.7 + # -.NXkXNXyXNXxXNXcXjXNXyX",
"NXyXNXzXxXNXaXmXuXNXuX[.* X   @ 8 z B.G.{ 9 w ^ G H i y.k k C :.N.|.Q.g.8 0 4XMXNXjXNXpXNXuXxXNXtXNX",
"uXNXuXnXNXuXNXxXNXuXnXkX@X*   E : k i.B.B.i.G.r.J.%XY.n.^.m.N.OX,X}.h.' b [.NXNXyXNXuXNXuXNXNXcXNXzX",
"vXuXNXcXpXNXxXNXuXNXcXxXMXyX, - n i e.B.E.E.V.n.i.D !.V.R.m.%X>XP.<.C q 5XNXuXcXNXxXNXuXNXuXxXNXuXNX",
"pXNXuXNXMXuXNXuXNXxXcXNXuXNXuXZ q L  .~ #.j.G.F q.( ( b.<.N.d.*.L B 0 bXNXuXNXxXuXNXuXNXuXNXNXyXNXuX",
"NXjXNXxXcXNXyXNXjXcXcXxXNXzXNXyXbX%.4 T W @.R ' d.X.} V h I 0 r y rXtXNXyXNXyXNXNXxXNXyXNXuXcXNXrXNX",
"uXNXyXNXvXpXNXpXNXxXxXnXuXNXuXMXzXnXNX0XK P ' ] ).5.4.h 9 w U NXNXyXNXpXNXuXNXcXuXNXuXNXuXNXMXxXNXxX",
"NXxXNXxXnXMXxXMXcXxXMXxXNXvXNXxXNXxXaXcXyX%.W ,.E ,.3.0XxXyXbXMXmXvXzXNXzXxXzXNXcXcXMXjXNXxXxXNXzXcX",
"vXxXxXMXxXnXcXMXzXMXxXxXmXxXmXxXNXzXxX5X[./.dX@X*X8XoX].=.iXvXxXvXvXxXnXxXcXdXxXvXxXMXcXcXxXcXnXxXNX",
"xXNXcXmXcXdXNXxXcXcXcXNXkXvXpXNXyXzX=.2.5.[.bX(.g.8XgX=XOX].uXnXcXkXNXdXNXcXnXcXxXNXkXNXzXNXcXxXNXjX",
"NXuXNXNXxXNXkXNXuXNXzXxXNXaXNXuXMX%.Z.5.*X4X8X-.z.d.oX_.L.wXpXnXuXmXtXNXyXNXzXxXNXuXNXuXNXkXxXNXtXNX",
"uXNXuXxXMXyXNXuXNXzXcXNXjXNXyXNX`.'.;XbX(.3.4.N ].(.].XX].).H.F.mXkXNXuXNXxXNXNXpXNXuXNXuXMXMXuXNXjX",
"NXuXNXcXxXNXuXNXuXNXcXjXNXpXbX/.`.=X;XpX*X`.`.*XsXZ [.q 5.t a.H.b.gXzXmXuXNXuXcXNXzXNXuXNXuXcXNXxXNX",
"zXNXuXMXNXuXNXxXNXxXmXMXpXr S.F.a.).K.F.gXfXgXXXa.=.*.$.u ,.2..XL.{.fXnXNXhXNXcXuXNXuXNXxXNXMXuXNXpX",
"NXuXNXcXxXNXyXmXxXpX'.eX6XF.OXL.*.M 1.F.(.S.].l.l.A.%.% '.l.b 1.;.K.2.vXtXNXkXxXNXuXNXuXNXuXxXnXyXNX",
"xXNXuXcXNXjXNXzX/.). X8XL.=X_.A.%._.Z.N *.} (.D.3.(.S.Z.D.2.7 ] S.d.7XsXNXyXMXMXuXNXyXNXuXmXNXdXNXyX",
"NXuXNXuXxXMXkXnX3.XXF.:Xh.H.oXl.B | *.Z 2.y 4.%.W 1.<.d.=.l.R X.d.B 6X%.pXNXuXcXNXzXNXuXNXpXxXNXuXNX",
"xXNXjXNXcXuXNX(.].4.L.p.l.L.Z.< &.*.=.r 2.- ;X%.0 E u.@.p.a.....Z.-.7X/.mXMXmXdXcXcXxXMXzXNXcXuXNXxX",
"cXvXxXNXcXmXmX=.D.1.y.x.z.G.g.l.T j.t.I 3.0.y.9.i.y.V.n.J.N.^.U.m.H ' ;XMXxXnXcXzXNXxXcXxXMXxXxXNXxX",
"xXxXvXxXnXmXyXqXl.s.x.s.G.y. .x N.!.A.W ;.j.) B.N.g W &.4.>.;.A.{.[ 3.mXzXNXxXxXNXxXNXxXmXxXxXMXvXNX",
"xXNXuXcXMXuXNXnXnXrXnXNXzXMXzXMXzXNXvXuXNXpXNXkXMXMXlXmXxXmXyXmXfXjXmXaXNXuXNXNXyXNXuXNXxXNXcXjXNXxX",
"NXxXNXmXcXNXuXNXxXMXxXnXNXzXNXxXNXvXxXvXxXMXxXmXxXxXMXkXmXxXNXxXnXmXkXNXxXmXdXxXMXxXNXxXNXuXxXNXxXNX"
};
