/* XPM */
static char *_d18fc5ffd6c42bbdbfefce54966afe5YWgvePqlLlD1cfgT[] = {
/* columns rows colors chars-per-pixel */
"50 50 91 1 ",
"  c #31AC2E",
". c #25B128",
"X c #2CB329",
"o c #2FAC33",
"O c #3AA636",
"+ c #2DB231",
"@ c #0CCE0D",
"# c #12CD0D",
"$ c #01D601",
"% c #09D306",
"& c #00D801",
"* c #06D309",
"= c #0AD10B",
"- c #0DCA12",
"; c #1AC617",
": c #14CB13",
"> c #17C518",
", c #1FC622",
"< c #29C42C",
"1 c #4D8E4D",
"2 c #4B914A",
"3 c #518E52",
"4 c #44BA42",
"5 c #738A6F",
"6 c #6F8671",
"7 c #708A70",
"8 c #7A8D7A",
"9 c #7A9079",
"0 c #53CB54",
"q c #59C859",
"w c #62CE66",
"e c #6FD66F",
"r c #7DD37B",
"t c #969696",
"y c #A3A3A3",
"u c #A7A9A6",
"i c #AAADA6",
"p c #AAA7A8",
"a c #A7A8A9",
"s c #ACACAC",
"d c #B2ADAE",
"f c #ADB2AD",
"g c #AEB3B2",
"h c #B3B2B2",
"j c #B5BAB6",
"k c #BABBB5",
"l c #B9B7BA",
"z c #BABABA",
"x c #9BC99C",
"c c #ADCDAD",
"v c #B3CCAF",
"b c #BAECBC",
"n c #BFBAC1",
"m c #C0C2C1",
"M c #D3D3D3",
"N c #DAD1D3",
"B c #D4D4DC",
"V c #DFDFDF",
"C c #C6EEC7",
"Z c #C4F1C4",
"A c #C9F4C9",
"S c #DFE0DB",
"D c #DEEDDD",
"F c #E4E4DF",
"G c #DDE4E1",
"H c #DEEBE1",
"J c #E5E5E2",
"K c #E6E3E5",
"L c #E1E5E4",
"P c #E3E5E4",
"I c #E3E6E4",
"U c #E4E4E4",
"Y c #E5E4E5",
"T c #E5E7E4",
"R c #E6E6E5",
"E c #E6E6E6",
"W c #E7E7E7",
"Q c #E9E3E2",
"! c #E8E4E2",
"~ c #E9E3E5",
"^ c #E9E4E6",
"/ c #E0EBE0",
"( c #E2E9E2",
") c #E4E9E7",
"_ c #E2E4E9",
"` c #E3E4EB",
"' c #E4E4E8",
"] c #E6E4E8",
"[ c #E8E3E8",
"{ c #F3F3F3",
"} c #F6F6F6",
/* pixels */
"VEEEEEEEEEEEEEEEEEEEEEEEEEEEEEEEEEEEEEEEEEEEEEEEEh",
"{EEEEWWWEEEEEEEEEEEEEW^]]^EEE^WWEEEEEEEEEEWWEEEEVy",
"{WEEEEEEEUEUEEEUEEEEWUUE)EJLPEEEUEUEEEEUEUEEEUEUVy",
"}EEEUEEEUEUEEEEEUEEEULEU^)EEEEEEEUEUEEUEUEEEUEUEVy",
"{EEUEUEUEUEUJEE]EUEUEUEEE]WUEEUEU]EEUEUEEUEUEUEUVy",
"{EUEUEUEE^UEUUEUUEUEUE]UEUUWEUEUEEEUEUEUUEUEUEUEVy",
"}EEUEUEUEUUWELELELUEUW^UJJEUUEUJUUUEUEUEEUEUEUEUVy",
"{EUEUEUEUKWUWUJEUUEUUULE`UU`UUUKEUUUEUEUUEUEUEUEVy",
"}WEEUEUEUEUEU^EUEE(JTEEEEKE)KEJFUUU]JEUEEUUEEEEUVy",
"}EEEEUEUEUEUEUEJUEC$$$$$$$$$$$&xUPUUUEEUUEEUE^ULVy",
"{EEEUEUEUEUEELUEUUZ&&$$$$&$$$$$1JEEJEJUWUEEJUEEEVy",
"{EEEEUEUEUEUEJ]UUUb$&$&$$$$&$$$2UEEPUEWUEUUEUPJ]Vy",
"}EEEUEEPUUUUU]JEKEb$$$&&&$$$$$$1EU]EJUUUUU]EJUEUVy",
"{EEEEUEQG@**%**$$%$$&$$$$$&&$$$$@$*%****@BQUEUUEVy",
"}WEEUEPPE*$$$$$$$$$$&$$$$&$$&$$$$$$$$$$$%jU`UEEJVy",
"}EEEUUEP^$$$$$$$$$$$$$&&$$&$$$$$$$$$$$$$$dJEEEL]Vy",
"{EKPE(LJE$&$$$$&$$$$&$$$&$$&$$$&$&$$$&$&$dFGJUEUVy",
"}EEPED$&%$$$&&$$$$$$$$&$&$$&$&$$$&$&$$$&$*&$v`UEVy",
"}EUEPH$$$$$&$$&$&$&$$&&$$$$$$$&$$$$$&$$$$$$$7~UEVy",
"{^EEEH$$$$$&$$$&$$&$$$$$$&&$$&&$&&&$$$$$$$$$7EUUVy",
"}EEEKD$&$&$$$$$@****%*$&$&$$*=*%*%@$$$&$&$$&5EUEVy",
"}EEEUH&$$$$&$$$3lkllkj$&$$$$6ljjjlx%$$$$&$$&5EUEVy",
"{EEJPH&$$$$&$$&3EEUJLP$$&$$$8EEEEEA$$$$&$$$$5JJUVy",
"}EUUKH$$&&$$$$$3EJEUUG$&&$$$8JKEEEZ$$$$&$&&$5EUEVy",
"}^UUEH$$&$$$$&$3UUEJEH$$$$&$9PPPJEA$$$$$$&&$5EUEVy",
"{EEU^H$$$$&$$$$$*$*$$$$&$&$$$*$&*$$$$$&$$$$$5UUUVy",
"}WEEEH$$$&$&&&$$$$$$$$$$$$&&$$$$$$&&$&$$&$$&5UUEVy",
"}WEEKH$$$&$&$$$&$$$$$$&$&$$$$$$$&$$&$$$&&$&$5EUUVy",
"{E]UED$$$&&&$$$$$$$$&&$&$$$$$$$$&$&&&$$$$$$$5[EEVy",
"{ELEEPmjhffsiiu4$$$$$:yfffss>$$&$$Xyapiffghjz^EEVy",
"}WEL`UUUUEUEJEJ0&$$$$;MUUUKU,$$$$&XVEEEKUUEK[UUUVy",
"}W^UEEUUUUF^`UP0$$$$$;MEUEEE,$$$$&XGJE]!LEGEUUUUVy",
"})EEEELEUUUJ^U^q*$*$$;B)EEEE<$$*$$+ULE_LUEUEUEUEVy",
"}]EELEEUUE`F-$%$$$.ysg&&&&&$vhs4$$$*$;S^^EEEEUEUVy",
"{EEKEEUUUEEU#$$&$& VUF&&&$$$8UUw$$$$&#NLUEPLPKEUVy",
"}EKPF^UUUQ^U@&$$$%oK`(&&$$&$8UEe$$$$&:BQ^EJEEPUEVy",
"}EKUELWEEL([#*%%*$OVEP$%*%%%8JUr%$**%:MEJELLPQJEVy",
"}EEEUH$$$$$$zhhghhhEUEzhghhhjULEhhhhhf$$$$$$vPUEVy",
"})J^^H$$$&$$tEUUU^EUEUEUEKEUEJEU`EEUU($$$$$$5EUEVy",
"}^ELUH$$$&&$tEUEEUEEUEUEPEPEEEUE^JEPUJ&$$$$$5UUEVy",
"{WWU^G$$$&$$tEU^EUEUEUEUEUEUUEEUEUEPEL$$$$$$5EUEVy",
"}WUU[LjuupspjEEJUEUEUEUEUEUEEUUEUEUEE]nppupph^UPVy",
"}^EUUQJUEU`LLEEEEUEUEUEUEUEUUEUEEUEKELEL''`^`LUUVy",
"{^EUUEKPU`'EEUEUUEUEUEUEUEUEUEEEUEPEPEEG'EUUEUUEVy",
"})EEUEUEUEUEKEUEEUEUEUEUEUEUJUE^EUEUUEUEUEUEJLUEVy",
"}]EEEUEUEUEUEUEUUEUEUEUEUEUEEULUUEUEEUEUEUEUEE^UVy",
"{EEJUEUEUEUEUEUEEUEUEUEUEUEUEE`UEUEUUEUEUEUEUEEEVy",
"{EEEEUEUEUEUEUEUUEUEUEUEUEUE^U^UUEUEEUEUEUEUEUEUVy",
"{UJUVVLVUVUVVUVUVUVUVUVVUVUVV^VUUVUVUVFVVUVUVVPVVy",
"stttttttttttttttttttttttttttttttttttttttttttttttth"
};
