/* XPM */
static char *result[] = {
/* columns rows colors chars-per-pixel */
"50 50 29 1 ",
"  c black",
". c #010101",
"X c #020202",
"o c gray1",
"O c #040404",
"+ c #060606",
"@ c #070707",
"# c gray3",
"$ c gray4",
"% c #0C0C0C",
"& c gray7",
"* c gray9",
"= c #181818",
"- c #191919",
"; c #1D1D1D",
": c gray13",
"> c #F1F1F1",
", c #F4F4F4",
"< c gray96",
"1 c #F6F6F6",
"2 c gray97",
"3 c #F9F9F9",
"4 c gray98",
"5 c #FBFBFB",
"6 c gray99",
"7 c #FDFDFD",
"8 c #FEFEFE",
"9 c white",
"0 c None",
/* pixels */
"00000000000000000000000000000000000000000000000000",
"00000000000000000000000000000000000000000000000000",
"00000000000000000000000000000000000000000000000000",
"00000000000000000000000000000000000000000000000000",
"00000000000000000000000000000000000000000000000000",
"00000000000000000000000000000000000000000000000000",
"00000000000000000000000000000000000000000000000000",
"00000000000000000000000000000000000000000000000000",
"000000000000000000000        000000000000000000000",
"0000000000000000000 .88888888  0000000000000000000",
"0000000000000000X.     .6888888 . 0000000000000000",
"000000000000008X6.      79999999X..000000000000000",
"00000000000007 7        7999999989X.00000000000000",
"0000000000008X8.        69999999998XX0000000000000",
"000000000007.8X          8999999998X96000000000000",
"00000000000.76.      . X7 789999999789.00000000000",
"0000000000 7X797    0099997..8999998o97 0000000000",
"0000000000X67998o  889999999XX999978.88 0000000000",
"0000000000.799999 899999999999    .  X98.000000000",
"000000000.8999998.9999999999990       99.000000000",
"000000000.899999X89999999999998       X97 00000000",
"00000000. 799999X89999999999998        98 00000000",
"00000000. 999999X89999999999998        o8 00000000",
"00000000  999999X89999999999548        X0 00000000",
"00000000  999999#998999999887>o        X0 00000000",
"00000000.X899991$253<,21,61<83:%&+     O8 00000000",
"00000000.789998+@=8<721<11928<*;-:%    98 00000000",
"00000000.8.698X    79999999976..      898 00000000",
"00000000 87.9X      7899988.679986   .998 00000000",
"000000000.97         X9976X999999998.9996 00000000",
"000000000.98X         ..779999999999X899X000000000",
"000000000889X          89999999999978998.000000000",
"0000000000.89.         899999999998.798X0000000000",
"0000000000 798        .899999999998X997 0000000000",
"00000000000.79X       799999999999X899.00000000000",
"000000000000.89       799999999999.897000000000000",
"0000000000000..787   X89999999998 .  0000000000000",
"00000000000000.8999997 X98999987    00000000000000",
"00000000000000076999999887.X9 .  ..000000000000000",
"0000000000000000 .8999999997      0000000000000000",
"0000000000000000008..8888888   0000000000000000000",
"00000000000000000000o.....  0000000000000000000000",
"00000000000000000000000990000000000000000000000000",
"00000000000000000000000000000000000000000000000000",
"00000000000000000000000000000000000000000000000000",
"00000000000000000000000000000000000000000000000000",
"00000000000000000000000000000000000000000000000000",
"00000000000000000000000000000000000000000000000000",
"00000000000000000000000000000000000000000000000000",
"00000000000000000000000000000000000000000000000000"
};
