/* XPM */
static char *_1a16febe37c4979c988b410f172aa16bHbIUYIQwd7n47gr[] = {
/* columns rows colors chars-per-pixel */
"50 50 230 2 ",
"   c None",
".  c #040102",
"X  c #0B0103",
"o  c #02020B",
"O  c #0B030B",
"+  c #0B0D0E",
"@  c #140303",
"#  c #13040C",
"$  c #1B0B0C",
"%  c #170708",
"&  c #060417",
"*  c #170A1A",
"=  c #191113",
"-  c #240A14",
";  c #261517",
":  c #260A0A",
">  c #0E0D22",
",  c #191226",
"<  c #11112F",
"1  c #341327",
"2  c #2B252C",
"3  c #332429",
"4  c #39393B",
"5  c #26253F",
"6  c #403E3F",
"7  c #14144E",
"8  c #10114E",
"9  c #211952",
"0  c #2D2B41",
"q  c #32264D",
"w  c #311B68",
"e  c #1D2564",
"r  c #272777",
"t  c #2E3277",
"y  c #2B256C",
"u  c #47394A",
"i  c #403B5A",
"p  c #663A6B",
"a  c #3A4240",
"s  c #524B4E",
"d  c #6D4B52",
"f  c #626059",
"g  c #634667",
"h  c #675467",
"j  c #6D696C",
"k  c #746C6C",
"l  c #7B6A78",
"z  c #787075",
"x  c #A9773D",
"c  c #9C1F48",
"v  c #9A244E",
"b  c #8D344D",
"n  c #A12C4F",
"m  c #963D65",
"M  c #AB3A74",
"N  c #D83456",
"B  c #EE2A5D",
"V  c #EA2457",
"C  c #ED335B",
"Z  c #DC2C76",
"A  c #D93B73",
"S  c #DA2E68",
"D  c #E82D66",
"F  c #F42C62",
"G  c #E73569",
"H  c #F92E73",
"J  c #F13472",
"K  c #824E55",
"L  c #844776",
"P  c #856D79",
"I  c #AF5975",
"U  c #E4404E",
"Y  c #DB7053",
"T  c #E6705A",
"R  c #D1566F",
"E  c #E14F74",
"W  c #D8667D",
"Q  c #E87076",
"!  c #DD9D3D",
"~  c #A98E79",
"^  c #DC9A4A",
"/  c #DA9C55",
"(  c #CF9D51",
")  c #E99853",
"_  c #EA9A4C",
"`  c #DBA255",
"'  c #E6A24C",
"]  c #F0B25B",
"[  c #D79F64",
"{  c #E39D60",
"}  c #CFAB7B",
"|  c #E7AD73",
" . c #19259E",
".. c #1D2F88",
"X. c #2B2987",
"o. c #293187",
"O. c #343589",
"+. c #332F9A",
"@. c #2F3698",
"#. c #3B3A9B",
"$. c #2E268C",
"%. c #1B2CB7",
"&. c #1725B2",
"*. c #1F36BC",
"=. c #1828A3",
"-. c #282BA6",
";. c #2633AC",
":. c #373AAC",
">. c #232BB7",
",. c #2132BD",
"<. c #2C3BBD",
"1. c #2938B9",
"2. c #353DB8",
"3. c #723C93",
"4. c #452EAB",
"5. c #4934B4",
"6. c #5E34A2",
"7. c #763BA9",
"8. c #672FA8",
"9. c #3546B8",
"0. c #314BB7",
"q. c #454A89",
"w. c #484293",
"e. c #634190",
"r. c #7946AF",
"t. c #7E45B2",
"y. c #616CB8",
"u. c #1D2BC1",
"i. c #2333C4",
"p. c #263CC3",
"a. c #2B3BC3",
"s. c #2D38CA",
"d. c #353CC7",
"f. c #253CD1",
"g. c #2D42CA",
"h. c #3743C8",
"j. c #3747D4",
"k. c #4D6CC3",
"l. c #4A74D3",
"z. c #5375CE",
"x. c #4D77EA",
"c. c #9D3A93",
"v. c #8E398F",
"b. c #A63D8B",
"n. c #A73796",
"m. c #B03591",
"M. c #CE3686",
"N. c #D83589",
"B. c #904E8C",
"V. c #B04191",
"C. c #8F758C",
"Z. c #836EA5",
"A. c #F95D86",
"S. c #EE5CA0",
"D. c #DB5F93",
"F. c #7A938B",
"G. c #7794D4",
"H. c #999197",
"J. c #A99997",
"K. c #9484A4",
"L. c #A499A5",
"P. c #B196A2",
"I. c #A9A1A4",
"U. c #BCB2B2",
"Y. c #DCAA98",
"T. c #E9B785",
"R. c #E7B49C",
"E. c #F7BF9C",
"W. c #F2B58F",
"Q. c #EA9BA1",
"!. c #D4ACA8",
"~. c #EBBCA6",
"^. c #F4BDA4",
"/. c #F5B2AC",
"(. c #FAC795",
"). c #EEDE95",
"_. c #EEDB9C",
"`. c #F3D99A",
"'. c #F3D08F",
"]. c #EDE195",
"[. c #F4E092",
"{. c #EDC7A4",
"}. c #F5C3A5",
"|. c #FCCCA4",
" X c #F2C6AA",
".X c #FBC5AA",
"XX c #F5CAAB",
"oX c #FBCAAC",
"OX c #FAC8A5",
"+X c #F4D6A8",
"@X c #ECC7B4",
"#X c #F4CBB4",
"$X c #FACCB3",
"%X c #F4CBBB",
"&X c #FBCBB9",
"*X c #F4C6BD",
"=X c #EDD2BC",
"-X c #ECD3A7",
";X c #EBE6B5",
":X c #EFE6B2",
">X c #8BA1CB",
",X c #BDB1E8",
"<X c #CDB3CA",
"1X c #B2C3EA",
"2X c #DBD6DB",
"3X c #DBD0D3",
"4X c #EDCAC4",
"5X c #FED9C8",
"6X c #E9D2C9",
"7X c #FDEFD4",
"8X c #F8F6D6",
"9X c #F4E7CB",
"0X c #DED9E3",
"qX c #CFDAFA",
"wX c #EBDEEC",
"eX c #ECE5EB",
"rX c #F9F6EA",
"tX c #F8EBF5",
"yX c #EBFAFC",
"uX c #F5F4F5",
"iX c #FAF5F4",
"pX c #FDFBF4",
"aX c #F6F5F9",
"sX c #FBF6FA",
"dX c white",
"fX c #FEFEFE",
"gX c #FCFCFD",
"hX c #FEFDFE",
"jX c #F5F9F9",
"kX c #F0EEEC",
/* pixels */
"                                                                                                    ",
"  dXdXdXdXdXdXdXdXdXdXdXdXdXgXgXdXgXgXdXgXgXdXgXgXgXjXgXgXgXgXgXgXgXdXjXuXgXdXdXdXdXdXdXdXdXdXdXdX  ",
"  dXdXdXdXdXdXdXdXdXdXdXdXuXuXuXiXjXuXuXaXtXtXrX7X7X7X7X7X7X7XaXjXgXaXgXgXuXaXdXdXdXdXdXdXdXdXdXdX  ",
"  dXdXdXdXdXdXdXdXdXdXdXgXgXgXgXdXgXgXgXaXaX8X:X].].].].].).).8XuXgXgXgXaXjXgXdXdXdXdXdXdXdXdXdXdX  ",
"  dXdXdXdXdXdXdXdXdXdXdXgXuXgXiXgXgXaXsXiXuX;X].).).).).).).[.].8XaXaXaXaXaXgXdXdXdXdXdXdXdXdXdXdX  ",
"  dXdXdXdXdXdXdXdXdXdXdXgXdXgXgXjXgXgXsXrX:X+X`.`.`.`.`.`.`.].].).gXdXdXgXsXgXdXdXdXdXdXdXdXdXdXdX  ",
"  dXdXdXdXdXdXdXdXdXdXdXgXgXgXgXgXgXiXgX:X].-XXXXX$X.XXX{.`.).).).gXgXdXsXaXgXgXdXdXdXdXdXdXdXdXdX  ",
"  dXdXdXdXdXdXdXdXdXdXdXgXdXdXdXgXgXgXaX;X].+X$XoX}.oXOX^.'.[.[._.gXgXdXjXgXgXdXdXdXdXdXdXdXdXdXdX  ",
"  dXdXdXdXdXdXdXdXdXdXdXdXdXdXdXgXdXgXgX:X+X| / ^ ) W.^ ^ ( |.`.pXpXdXdXjXgXgXgXdXdXdXdXdXdXdXdXdX  ",
"  dXdXdXdXdXdXdXdXdXdXdXdXdXdXdXgXdXgXsX-XXXR.XX}. X.XXX|.$X|.'.gXdXdXdXgXgXgXdXdXdXdXdXdXdXdXdXdX  ",
"  dXdXdXdXdXdXdXdXdXdXdXdXdXdXdXgXdXgXpX+XOX9XrXrXrX6XgXpXsX#X(.pXdXgXdXgXgXgXdXdXdXdXdXdXdXdXdXdX  ",
"  dXdXdXdXdXdXdXdXdXdXdXgXgXgXgXaXdXgXpX} W.9XJ.f rX=XgX$ gXOX/ rXgXgXdXaXgXgXgXdXdXdXdXdXdXdXdXdX  ",
"  dXdXdXdXdXdXdXdXdXdXdXgXdXdXdXgXdXjXgX} W.&X#XXXoXR.%X=X*X|.( pXdXgXdXaXgXgXdXdXdXdXdXdXdXdXdXdX  ",
"  dXdXdXdXdXdXdXdXdXdXdXdXdXdXdXgXdXjXpXrXT.(.XX.X^.E.$X&XoX/ 8XjXdXdXdXdXdXgXdXdXdXdXdXdXdXdXdXdX  ",
"  dXdXdXdXdXdXdXdXdXdXdXdXgXdXdXjXdXrXpXsXT.{ ' x 1 ; : ^ / _ pXsXdXgXdXgXgXaXdXdXdXdXdXdXdXdXdXdX  ",
"  dXdXdXdXdXdXdXdXdXdXdXaXgXgXgXdXo > * , n T _ ` [ [ ` ' ) N O o gXgXgXuXgXgXdXdXdXdXdXdXdXdXdXdX  ",
"  dXdXdXdXdXdXdXdXdXdXdXgXdXgXpX4 #.@.@.:.m.U T ' ' ' ! ) U G O...4 yXjXjXjXgXdXdXdXdXdXdXdXdXdXdX  ",
"  dXdXdXdXdXdXdXdXdXdXdXaXjXaX. q.2.<.9.j.V.H M C.(.(.%Xg ] E 2.*.#.< gXiXgXgXdXdXdXdXdXdXdXdXdXdX  ",
"  dXdXdXdXdXdXdXdXdXdXdXgXgXsX* 9.p.d.g.j.m.H B.r.Q /.S.:.F.] 2.1.2., gXjXgXgXdXdXdXdXdXdXdXdXdXdX  ",
"  dXdXdXdXdXdXdXdXdXdXdXdXgXk H.:.i.g.r X.M H V.B.J A.N.:.V.Y p.s.d.X.h iXgXgXdXdXdXdXdXdXdXdXdXdX  ",
"  dXdXdXdXdXdXdXdXdXdXdXdXgX= #XZ.;.4.4 l L Z n.t.G F M.5.D D X.a.f.2., aXgXgXdXdXdXdXdXdXdXdXdXdX  ",
"  dXdXdXdXdXdXdXdXdXdXdXdXI.d E.R.e q C.wXH.m v.t.J F N.5.B D > 1.d.y.d P.pXgXdXdXdXdXdXdXdXdXdXdX  ",
"  dXdXdXdXdXdXdXdXdXdXgXdXO Y.&X!.$ h eXwXtXP w t.G F N.5.B S * +.w.#X=X$ gXgXgXdXdXdXdXdXdXdXdXdX  ",
"  dXdXdXdXdXdXdXdXdXgXdXdX# ^.Y.: dXuXgXP p u e r.C B N.4.F G % # oXOX X= dXgXdXdXdXdXdXdXdXdXdXdX  ",
"  dXdXdXdXdXdXdXdXdXgXdXgX# /. X; gXtXsXP h u y 7.D F N.5.F G * * %XoX^.; dXgXdXdXdXdXdXdXdXdXdXdX  ",
"  dXdXdXdXdXdXdXdXdXdXdXgXX /.Y.: p p wXtXeXl w 7.D B N.4.V D # sX@  X.X$ dXaXdXdXdXdXdXdXdXdXdXdX  ",
"  dXdXdXdXdXdXdXdXgXdXdXgXX R.&X@ g g wXsXh c c.6.Z D V.+.V S # jXX &XOX; gXaXdXdXdXdXdXdXdXdXdXdX  ",
"  dXdXdXdXdXdXdXdXdXgXdXgXX $XY.4X% # * * n A v.p.8.b.i.>.S A . O &X.X.X$ uXgXdXdXdXdXdXdXdXdXdXdX  ",
"  dXdXdXdXdXdXdXdXgXdXgXgXX $X*X4XX kXgXgXh r =.;. .-. . .$.O gX@ #X#X#X: sXgXdXdXdXdXdXdXdXdXdXdX  ",
"  dXdXdXdXdXdXdXdXdXdXgXgX. XX~.: . kXsXsXh #.1.d.1.1.>.>.;.o sXO $XXX%X$ sXaXdXdXdXdXdXdXdXdXdXdX  ",
"  dXdXdXdXdXdXdXdXdXdXgXgX. $X@X@ dXgXgX4 r a.p.s.i.s.>.u.u.-.& sXX O @ iXiXgXdXdXdXdXdXdXdXdXdXdX  ",
"  dXdXdXdXdXdXdXdXgXdXdXdXsX. . # dXsXsX6 $.<.s.h.2.d.i.>.>.;.o sXgXgXiXiXpXgXdXdXdXdXdXdXdXdXdXdX  ",
"  dXdXdXdXdXdXdXdXdXdXgXgXsXdXdXgXsXgXgX4 r 1.*.s...8 %.%.&.-.. gXgXsXsXsXpXgXdXdXdXdXdXdXdXdXdXdX  ",
"  dXdXdXdXdXdXdXdXdXdXgXgXgXgXdXsXgXaXgX4 $.<.p.s.o.7 i.,.%.-.o sXgXgXgXgXsXsXdXdXdXgXdXdXdXdXgXdX  ",
"  dXdXdXdXdXdXdXdXdXdXdXgXdXgXgXgXgXgXgX0 o.2.p.j.@.7 i.*.%.-.o gXgXgXgXgXgXgXgXdXdXgXdXdXgXgXdXdX  ",
"  dXdXdXdXdXdXdXdXdXgXdXaXgXsXgXaXgXaXdXs P.G.d.@.q 0X< 2.;.3X. tXgXsXaXgXaXsXdXgXdXdXgXdXdXgXdXdX  ",
"  dXdXdXdXdXdXdXdXdXgXdXgXgXsXdXsXdXaXs J.{.<X<XK.q 3X, <X<X}.!.a dXsXsXpXiXgXdXgXdXdXgXgXgXdXgXdX  ",
"  dXdXdXdXdXdXdXdXgXdXdXgXgXgXaXuXgXaX2 I R Q.{.~ s 0X-  X*XE W ; gXgXsXgXgXsXdXdXgXdXdXdXdXdXdXdX  ",
"  dXdXdXdXdXdXdXdXdXdXgXgXgXaXgXaXdXiX3 e.7.D.R P U.eXL.d S.8.3.$ dXgXgXsXsXgXdXdXgXgXdXdXgXgXdXdX  ",
"  dXdXdXdXdXdXdXdXgXdXdXsXsXaXsXaXgXiX3 L n.Z v P rXgXgX1 J m.v., dXsXsXsXpXgXgXdXdXdXgXdXdXgXdXdX  ",
"  dXdXdXdXdXdXdXdXdXgXdXsXgXaXsXaXgXsX2 B.m.M.v l sXsXsX; H c.c.- gXgXsXsXgXsXdXgXdXdXgXdXdXdXgXdX  ",
"  dXdXdXdXdXdXdXdXdXdXdXgXsXgXsXaXdXsX3 q.d.m.v z gXgXgX1 A s.h.* gXgXgXgXsXgXdXdXgXgXdXdXgXgXdXdX  ",
"  dXdXdXdXdXdXdXdXdXgXgXgXgXgXgXgXgXiX9 q.w.B.K z sXsXgX* I O.O.8 tXgXsXsXpXsXdXdXdXgXdXdXgXdXdXdX  ",
"  dXdXdXdXdXdXdXdXgXdXdXgXgXgXsXpX2X9 0.y 5 0 3 k gXsXgX- 3 , 5 0.8 2XsXsXgXgXdXgXdXdXgXgXdXdXgXdX  ",
"  dXdXdXdXdXdXdXdXdXgXdXgXsXgXsXuX& 9.x.qXG.1XL.j sXsXgX= yXl.yXl.h.& dXgXsXgXgXdXgXdXdXdXdXgXdXdX  ",
"  dXdXdXdXdXdXdXdXgXdXdXgXgXdXgX+ y.l.l.qX>X,XL.j sXgXdX> uXz.yXz.k.k.& tXgXgXdXdXdXgXgXdXgXgXdXdX  ",
"  dXdXdXdXdXdXdXdXdXdXgXgXgXgXaX+ @ * % $ + $ = j sXsXgXO X O o o O . . kXgXgXgXgXdXgXdXdXdXdXdXdX  ",
"  dXdXdXdXdXdXdXdXgXdXgXgXgXgXsXsXaXaXsXpXjXuXuXiXsXsXsXpXsXsXsXgXdXaXgXgXsXsXdXgXdXdXdXgXgXdXgXdX  ",
"  dXdXdXdXdXdXdXdXdXdXdXdXgXdXgXgXgXdXgXgXdXdXgXdXgXgXdXgXgXdXgXgXgXgXgXgXgXgXdXdXdXdXdXdXdXdXdXdX  ",
"                                                                                                    "
};
