/* XPM */
static char *_09407a0698747a3e72c83027c3f6f37mrt7YhYnp7iPpI7F[] = {
/* columns rows colors chars-per-pixel */
"50 50 44 1 ",
"  c None",
". c #0E0D0D",
"X c #1C100C",
"o c #1B223F",
"O c #4B2B18",
"+ c #472921",
"@ c #7F222F",
"# c #663722",
"$ c #703138",
"% c #76452F",
"& c #3E3140",
"* c #25336B",
"= c #433A56",
"- c #6B376B",
"; c #614142",
": c #5A4865",
"> c #AC2333",
", c #BB2736",
"< c #CB2B38",
"1 c #8C4627",
"2 c #814F31",
"3 c #9D613C",
"4 c #AD612E",
"5 c #D37335",
"6 c #8B2D4F",
"7 c #9E4049",
"8 c #8A5843",
"9 c #915C40",
"0 c #905D5F",
"q c #B37045",
"w c #C05663",
"e c #E8A13E",
"r c #FBC337",
"t c #CF9168",
"y c #D19268",
"u c #2B4AA2",
"i c #5D5380",
"p c #5D75B8",
"a c #D48D96",
"s c #D59199",
"d c #EAB384",
"f c #C5ABAC",
"g c #92A2CF",
"h c #F2F2F6",
/* pixels */
"                                                  ",
"                                                  ",
"                                                  ",
"                                                  ",
"                                                  ",
"                                                  ",
"                   2222222222OO                   ",
"                 2OOOOOOOOOOOOOO                  ",
"               22OOOOOXXOOXXOXXX+22               ",
"              2OOOOXXXOOOXXXXXXXXOO2              ",
"              2OOOOXXXOOXXXXXXXXXOOO              ",
"              OOOOXXXdOOyddddddyXXXO              ",
"              OOOXyddddddddddddyyOOO              ",
"              OOOyyddddddddddddyyOOO              ",
"              %%%yyddddddddddddyy%%%              ",
"              %%%yddddddddddddddy%%%              ",
"              9dddd33333dd33333dddd9              ",
"            ty9dddh...hhydhh...hddd9yt            ",
"            tyyddddyyyddydddyyyddddyyt            ",
"            tyqdddddddyydddddddddddqyt            ",
"            tyqddddddddddddddddddddqyt            ",
"            tyq##yddddqqddqqddddy##qyt            ",
"              y##yddddyyqqyyddddy##y              ",
"               ##1yyyd111111yyyy1##               ",
"               ##11yy11111111yy11##               ",
"                 #1111qqqqqq1111#                 ",
"                 #111111yy111111#                 ",
"                  #11#114411#11#                  ",
"                  q##1##11##1##q                  ",
"                  qqq########qqq                  ",
"                  qqqqqqqqqqqqqq                  ",
"                 eqqqqqqqqqqqqqqe                 ",
"               @@eeqqqqqqqqqqqqee@@               ",
"              @@@@errrqqqqqqrrre@@@@              ",
"           @$;@>>>>00rrrrrrrr00>>>>@;$@           ",
"          @>70>>>>>00uuuuuuuu00>>>>>07>@          ",
"        @@>ui0>>>>>00uuuuuuuu00>>>>>0iu>@@        ",
"       @>>uui0>>>>>00uuuuuuuu00>>>>>0iuu>>@       ",
"       >>>uui0>>>>>00uuuuuuuu00>>>>>0iuu>>>       ",
"      @>uuuui0>>>>>00uuuuuuuu00s<55,0iuuuu>@      ",
"      @>uuuui05>>5500uuuuuuuu00565560iuuuu>@      ",
"      @>uuuui0555>>00uuuuuuuu00--55-0iuuuu>@      ",
"      @>uuu*:0>>>>>00uuuuuuuu00>>>>>0:*uuu>@      ",
"      @>uuu*:0>>>>>00uuuuuuuu00>>>>>0:*uuu>@      ",
"      @>uuu*=;>>>>>00uuuuuuuu00>>>>>;=*uuu>@      ",
"      @>uuuo&;>>>>>00uuuuuuuu00>>>>>;&ouuu>@      ",
"      @>uuuo&;>aaaw00ggggpggp00aw>>>;&ouuu>@      ",
"      @>uuuo&;>aaawffggggpgggffawaa>;&ouuu>@      ",
"      @>uuuo&;@aawaffgppggppgffwwww@;&ouuu>@      ",
"      yyyyyq8;@>>>>00uuuuuuuu00>>>>>;8qyyyyy      "
};
