/* XPM */
static char *_8037ea993d043aed73a89ad9002a984ozLYt1QKDRS6klth[] = {
/* columns rows colors chars-per-pixel */
"50 50 37 1 ",
"  c black",
". c #040404",
"X c #090909",
"o c #151515",
"O c #390327",
"+ c #232323",
"@ c gray14",
"# c #2A2A2A",
"$ c #392231",
"% c gray27",
"& c gray29",
"* c #4E4E4E",
"= c #5D4756",
"- c #555555",
"; c #585858",
": c #5F5F5F",
"> c #705A69",
", c gray38",
"< c #676767",
"1 c #767676",
"2 c #7B7B7B",
"3 c #BB0A7F",
"4 c #C60B86",
"5 c #E10D99",
"6 c #B97CA4",
"7 c gray51",
"8 c #868686",
"9 c gray55",
"0 c gray68",
"q c gray69",
"w c gray71",
"e c #F39BD5",
"r c #C8C8C8",
"t c gray82",
"y c gray87",
"u c gray95",
"i c gray97",
/* pixels */
"iiiiiiiiiiiiiiiiiiiiiiiiiiiiiiiiiiiiiiiiiiiiiiiiii",
"iiiiiiiiiiiiiiiiiiiiiiiiiiiiiiiiiiiiiiiiiiiiiiiiii",
"iiiiiiiiiiiiiiiiiiiiiiii::iiiiiiiiiiiiiiiiiiiiiiii",
"iiiiiiiiiiiiiiiiiiiiii8   oiiiiiiiiiiiiiiiiiiiiiii",
"iiiiiiiiiiiiiiiiiiiiii 6ee3iiiiiiiiiiiiiiiiiiiiiii",
"iiiiiiiiiiiiiiiiiiiiii $==>iiiiiiiiiiiiiiiiiiiiiii",
"iiiiiiiiiiiiiiiiiiiii0     iiiiiiiiiiiiiiiiiiiiiii",
"iiiiiiiiiiiiiiiiiiiiiw     iiiiiiiiiiiiiiiiiiiiiii",
"iiiiiiiiiiiiiiiiiiii,      ,iiiiiiiiiiiiiiiiiiiiii",
"iiiiiiiiiiiiiiiii              iiiiiiiiiiiiiiiiiii",
"iiiiiiiiiiiiiii               X, iiiiiiiiiiiiiiiii",
"iiiiiiiiiiiiiii          #45;    iiiiiiiiiiiiiiiii",
"iiiiiiiiiiiiiit           X9     iiiiiiiiiiiiiiiii",
"iiiiiiiiiiiiii           OO O   +<iiiiiiiiiiiiiiii",
"iiiiiiiiiiiiii           ,,        iiiiiiiiiiiiiii",
"iiiiiiiiiiiiii                    , @iiiiiiiiiiiii",
"iiiiiiiiiiiiii  i                    iiiiiiiiiiiii",
"iiiiiiiiiiiii   u             i      iiiiiiiiiiiii",
"iiiiiiiiiiiii   i             ii7#   iiiiiiiiiiiii",
"iiiiiiiiiiii7 iii             iii&   iiiiiiiiiiiii",
"iiiiiiiiiiii+ iiiiii          iii*   iiiiiiiiiiiii",
"iiiiiiiiiiii  iiiiii          iiiii  iiiiiiiiiiiii",
"iiiiiiiiiiii iiiiiiiii        iiiii  iiiiiiiiiiiii",
"iiiiiiiiiiiii  iiiiiii        iiiii  .iiiiiiiiiiii",
"iiiiiiiiiiiii    ::iii          iiii  iiiiiiiiiiii",
"iiiiiiiiiiiiiiiii    i          iiii. iiiiiiiiiiii",
"iiiiiiiiiiiiiiiiiii99-          ,ii iiiiiiiiiiiiii",
"iiiiiiiiiiiiiiii:<, i            i  iiiiiiiiiiiiii",
"iiiiiiiiiiiiiiiiiii  i              iiiiiiiiiiiiii",
"iiiiiiiiiiiiiiiiiiiiii             iqiiiiiiiiiiiii",
"iiiiiiiiiiiiiiiiiiiiii          ii   iiiiiiiiiiiii",
"iiiiiiiiiiiiiiiiiiiiiiii        iiiiiiiiiiiiiiiiii",
"iiiiiiiiiiiiiiiiiiiiiii1%      iiiiiiiiiiiiiiiiiii",
"iiiiiiiiiiiiiiiiiiiiiii        iiiiiiiiiiiiiiiiiii",
"iiiiiiiiiiiiiiiiiiiiiii       iiiiiiiiiiiiiiiiiiii",
"iiiiiiiiiiiiiiiiiiii          iiiiiiiiiiiiiiiiiiii",
"iiiiiiiiiiiiiiiiiiii      iiiiiiiiiiiiiiiiiiiiiiii",
"iiiiiiiiiiiiiiiiiiii      iiiiiiiiiiiiiiiiiiiiiiii",
"iiiiiiiiiiiiiiiiiiiiy    iiiiiiiiiiiiiiiiiiiiiiiii",
"iiiiiiiiiiiiiiiiiiiiy    :.iiiiiiiiiiiiiiiiiiiiiii",
"iiiiiiiiiiiiiiiiiiiiiiii   iiiiiiiiiiiiiiiiiiiiiii",
"iiiiiiiiiiiiiiiiiiiiiiii-i  iiiiiiiiiiiiiiiiiiiiii",
"iiiiiiiiiiiiiiiiiiiiiiiiiii  iiiiiiiiiiiiiiiiiiiii",
"iiiiiiiiiiiiiiiiiiiiiiiiiy0X .iiiiiiiiiiiiiiiiiiii",
"iiiiiiiiiiiiiiiiiiiiiiiiiyii iiiiiiiiiiiiiiiiiiiii",
"iiiiiiiiiiiiiiiiiiiiiiiiiii2iiriiiiiiiiiiiiiiiiiii",
"iiiiiiiiiiiiiiiiiiiiiiiiiii2iyyiiiiiiiiiiiiiiiiiii",
"iiiiiiiiiiiiiiiiiiiiiiiiiiiiii iiiiiiiiiiiiiiiiiii",
"iiiiiiiiiiiiiiiiiiiiiiiiiiiiiiiiiiiiiiiiiiiiiiiiii",
"iiiiiiiiiiiiiiiiiiiiiiiiiiiiiiiiiiiiiiiiiiiiiiiiii"
};
