/* XPM */
static char *_5206083454640afd273d55e003c5d36TlJkFTkTN3auoOnA[] = {
/* columns rows colors chars-per-pixel */
"50 50 156 2 ",
"   c #070906",
".  c #070908",
"X  c #090B0A",
"o  c #14140D",
"O  c #141514",
"+  c #1A1D1A",
"@  c #111224",
"#  c #1C2E21",
"$  c #2F2B2A",
"%  c #342E2E",
"&  c #282735",
"*  c #3F4933",
"=  c #754A2A",
"-  c #4A6830",
";  c #546C37",
":  c #597F3C",
">  c #4A4846",
",  c #434250",
"<  c #5D5D6A",
"1  c #6D6F7E",
"2  c #77777F",
"3  c #8A1816",
"4  c #861B1A",
"5  c #891B1C",
"6  c #852B1C",
"7  c #8E2121",
"8  c #962925",
"9  c #9E2B2B",
"0  c #A12C2C",
"q  c #A23530",
"w  c #A04639",
"e  c #AA5246",
"r  c #578736",
"t  c #598535",
"y  c #5C8A35",
"u  c #5D863C",
"i  c #5E8C3C",
"p  c #5F903D",
"a  c #618B37",
"s  c #63863C",
"d  c #68873C",
"f  c #608C3D",
"g  c #688B3C",
"h  c #5E8B42",
"j  c #628D42",
"k  c #6A8E43",
"l  c #678E4A",
"z  c #6A8E4A",
"x  c #65904A",
"c  c #6B934C",
"v  c #72954E",
"b  c #6D8D53",
"n  c #6B8B58",
"m  c #6E9352",
"M  c #6E9853",
"N  c #729654",
"B  c #759953",
"V  c #789957",
"C  c #759659",
"Z  c #7D9464",
"A  c #779960",
"S  c #DB8E24",
"D  c #E69929",
"F  c #E7A228",
"G  c #869452",
"H  c #889C6D",
"J  c #85A36C",
"K  c #89A46E",
"L  c #88A875",
"P  c #92A77C",
"I  c #D78E4F",
"U  c #D98D4F",
"Y  c #D08750",
"T  c #D18952",
"R  c #DA8E51",
"E  c #DC935E",
"W  c #DB9B6E",
"Q  c #7B8BB2",
"!  c #8E8B8A",
"~  c #888790",
"^  c #878890",
"/  c #95989F",
"(  c #96A988",
")  c #9EAE8D",
"_  c #99B486",
"`  c #97B884",
"'  c #9EB48D",
"]  c #9FB493",
"[  c #A1B58C",
"{  c #A5BC98",
"}  c #B1BE9E",
"|  c #ADBEA5",
" . c #B1BFA1",
".. c #B3BDAE",
"X. c #E7B88F",
"o. c #EDB88F",
"O. c #E6B990",
"+. c #EAB991",
"@. c #CEAEAC",
"#. c #DAAEAC",
"$. c #AAC194",
"%. c #AFC7A3",
"&. c #AFC8AA",
"*. c #B2C4A4",
"=. c #B2C8A7",
"-. c #B4C6AC",
";. c #BAC2AB",
":. c #B4C9AA",
">. c #BAC9AC",
",. c #B1C4B2",
"<. c #BCC6B2",
"1. c #B6C8B3",
"2. c #B9CAB3",
"3. c #C4D2BD",
"4. c #EFC9A5",
"5. c #F1CDA7",
"6. c #F5CFAB",
"7. c #F6D0AD",
"8. c #E4C9B4",
"9. c #F8CEB2",
"0. c #FDD0B1",
"q. c #C5C6CA",
"w. c #D0CFCD",
"e. c #CCD3C5",
"r. c #C8D9C0",
"t. c #C6D2CA",
"y. c #CBD6C9",
"u. c #CECED3",
"i. c #D7DED4",
"p. c #DCDCD6",
"a. c #D6DCD9",
"s. c #DDDDDD",
"d. c #E1DDDC",
"f. c #DCE3D6",
"g. c #DDE1DB",
"h. c #DEE1DF",
"j. c #E2E1DE",
"k. c #E9E6DE",
"l. c #D4D3E0",
"z. c #DDDDE2",
"x. c #E1DFE2",
"c. c #E2DFE3",
"v. c #E4DDE9",
"b. c #DEE2E1",
"n. c #DEE2E5",
"m. c #E1E1E1",
"M. c #E2E1E3",
"N. c #E5E2E2",
"B. c #E1E5E2",
"V. c #E7E7E5",
"C. c #E9E7E4",
"Z. c #E8E8E6",
"A. c #E9E9E7",
"S. c #E5E3E9",
"D. c #E9EAEA",
"F. c #EDEEF0",
/* pixels */
"f f f f f f f f f f f f j i f f f f f f f f i f f f f f f i j i f f f f f f f f f f i f f f f f f i ",
"f f f f f f f f f f f i f f f f f f i f j f f f f f f f f f f f f f f f f f f j f f f f f f f f j f ",
"i f f f f f f f f f f f f f f f f f f f f f f f f f f f i f f f f f f f i f f f f f f f f f f i i f ",
"f f f f j f f f f f s f f f f f s f j f f f f f f f f f f f s f s f f f f f f f f f f f f f f f f f ",
"Z.Z.Z.D.Z.Z.Z.Z.Z.Z.Z.D.Z.Z.D.Z.Z.Z.Z.D.Z.Z.Z.D.Z.Z.Z.D.Z.Z.Z.A.Z.Z.D.Z.Z.Z.Z.D.Z.Z.Z.A.A.f i f f f ",
"d.s.s.s.s.s.s.s.s.s.s.s.s.s.s.s.s.s.s.s.s.j.s.s.g.s.s.s.s.s.s.j.s.s.s.s.s.s.s.s.s.s.s.s.Z.h j f i f ",
"s.f f z.f f s.f f K f f f ' f f s.f f s.f j s.i i s.f f t f f f s.f i s.f f s.f f d.f s.D.i f f f f ",
"a s.s.f p.g i s.f y.s.i z.:.i s.f N s.i p.N.f s.y i s.f b.s.i z.N i s.f *.s.f s.e.j s.s.Z.f f f f f ",
"f j.C.f n.n f N.b r.B.l M.>.l B.a Z B.f b.V.f N.g i Z.l B.M.x B.C l M.f >.N.f N.y.f N.s.Z.h f i f f ",
"s.f f s.i i s.f f J f f i ' f f g.i j d.i f b.f f s.f f r f f a i.i i s.f f s.f f d.f s.Z.i f f f f ",
"f d.b.f z.l f s.a e.s.f s.1.a c.i N d.f d.M.f s.i i z.a S.s.a M.N i d.a =.z.j s.y.f z.s.A.f f f f f ",
"f N N i B f.i C f.N C g.V N b.C i s.C i B N f C n.f C b.C C g.C ; % % % ( C f C ) j C g.Z.p f f f i ",
"s.f f s.f f s.f a J i f f ' f f g.i i s.f i s.f a O i f i f f % w.% Z.D.! f s.f i d.f s.D.h i f f j ",
"f s.z.f d.j i b.i e.s.j s.1.f s.i N s.f s.M.f s.O O z.i z.s.f % > Z.% Z.% s.f s.e.f s.s.Z.p f f f i ",
"i u i f j g.p i s.f i p.i i p.p i g.i f p i s 0 O f p s.g i p.% Z.Z.% Z.% i i h K f i s.Z.f f f f f ",
"s.f f p.i y g.i i K f f p [ f f p.f h s.a p 0 5 s s.f i i f f j > Z.D.% * i s.f j s.f s.Z.h f f f i ",
"s s.s.i d.j i s.a e.s.f s.-.f s.f N s.f z.q 5 s.E U R E b.s.f s.: % % % -.s.f s.y.f s.s.Z.f f f f f ",
"i a f f a M.f f b.f i g.i i g.a a i.i i 0 5 f E +.T I R E f p.f h d.f f [ j f f K f f s.D.i f f f f ",
"j.c l x.l i M.l i P z f k { f l j.a c 0 5 l X.5.7.W R I R E i l a.y x M.l z x.l m z.k s.D.i f f f f ",
"i s.s.i d.j f s.f e.s.f s.-.f M.f N 0 5 s.7.7.0.5.+.Y R R U f z.N # s.f -.s.i s.y.f s.s.D.i i f f f ",
"f y f i h x.f i d.f f s.f f g.f f 0 0 g +.7.7.9.7.7.O.Y Y R d.f O + + i ' i f f K f f s.D.i j i i f ",
"J e.y.J y.j J y.f 3.y.f e.2.f y.A 0 0 J +.7.7.7.6.6.7.7.+.T f O O o y.J $.t.J y.1.H y.s.Z.h f f f f ",
"f s.s.i s.j f s.f y.s.f s.-.f s.p 0 9 5 X.7.e 7.7.5.Q 7.Y s.0 7 O o s.f -.b.f s.e.f s.s.Z.i f f f f ",
"f y i f i M.f f d.f f s.f f z.f f 0 0 8 o.6.6.0 7.7.6.+.i 9 5 6 i g.f f ' i f i J f f s.Z.i f f f f ",
"j s.s.i x.k i s.i e.s.f p.:.f s.i 0 0 9 Z.X.7.6.7.7.X.f 0 5 = x.C h z.i >.j.i d.e.a z.s.Z.h f f i f ",
"h g.z.h s.j h z.f e.s.i j.-.i b.0 0 9 9 q C.X.o.+.+.s.9 7 @.i z.c i z.h -.s.i s.t.i z.s.D.i f f i j ",
"i i i i h x.i i d.f f s.f f s.0 0 k.9 S F 0 0 0 s.f 0 5 j i s.f f s.f f ' f f i J a f s.Z.p i f f f ",
"f s.p.f d.j i s.f e.s.f s.-.9 0 9 Z.C.0 D 0 0 0 0 0 5 h x.s.f s.N f g.f -.s.f s.e.f b.g.Z.i f f f f ",
"j p.d.j p.j j d.f 3.d.i z.0 0 0 0 9 #.Z.0 9 5 5 5 5 j.f x.d.f d.A f p.j =.g.j p.r.j p.s.Z.j f f f f ",
"f y f f h M.f f d.f f s.9 9 9 0 0 0 9 0 5 r f i s.i f d.f f s.f i b.f f ' f f i K f f s.D.i f f i f ",
"a M.s.i d.j f s.f e.p.3 0 0 0 0 9 9 0 5 s.x.f s.i i z.f M.s.f s.N f s.h ,.s.f s.y.f s.s.C.i f f f f ",
"2.' ' <.' g <.' j | O O 5 9 9 0 9 0 5 <.' [ <.' f -.[ f _ _ f [ 2.j [ 2.L [ 2.[ ( 2.[ s.D.h i f f f ",
"f u a f a M.f f z.X O O O 4 9 9 0 3 s f i t f f s.s f d.i i b.f f d.g i [ f f f J i i s.Z.i f f f i ",
"f g.s.f d.j i s.j 6.X i   O 6 9 6 N z.f s.x.i s.i i s.f M.s.i s.N f s.f -.p.f p.e.f s.s.Z.i f f f f ",
"d.i i s.i i s.i 7.+.i i O O O 4 d.i i d.y y d.i i s.i f r i f i i.f i s.u i s.i f x.i s.Z.h f f f f ",
"i u f f j n.i 9 w f i 7.X O X r f a.i f p y f i z.f i g.j a g.i a p.i f ' j f i J j i s.D.i f f f f ",
"f s.s.- s.f 0 5 f e.7.+.8.  f s.f N s.f s.x.f s.i i x.f x.s.f s.N f s.f -.s.f s.e.f s.s.Z.i f f i f ",
"s.f f s.  O 5 s f 9 3 G f [ f f s.f f s.f f s.i f s.f f r f f f p.f f s.f f s.f f d.f s.Z.f f f f f ",
"j t t f t . i r 0 5 s x.t r M.r j i.r f r t f y d.t r x.u f x.t a v.r i _ t f r H j y s.Z.i f f f f ",
"f s.s.i s.k i O 5 y.z.f x.2.f x.s N d.f z.s.f z.s i s.f M.i.f z.N i z.f -.s.f z.y.i z.s.Z.h f f f f ",
"s.a f s.f f s.. . K f f f ' i i s.f f s.f f z.a f s.f i t i a f p.a f s.i f s.f i s.f s.Z.i f f f f ",
"i *.-.f &...f -.X { *.*.-.`  .-.i ;.-.f =.%.i -.} f -.*.:.*.} -.b *.-.f <.,.f -.-.f -.s.D.i f f f f ",
"f s.d.f b.j i s.f y.g.h s.-.i s.a B s.f s.n.i g.y i s.i M.b.h g.M f s.f ,.s.f s.e.f b.s.Z.i f f f f ",
"s.f f s.f f s.i f K a f i ' f f z.f f s.i i s.f f s.g f r i f j p.f f s.f f s.f a s.i s.Z.h f f f f ",
"f s.s.f d.j f s.f e.p.f s.1.u s.f N s.f s.z.i s.i i s.s x.s.i p.N s s.i -.s.f s.e.f s.s.Z.i f i f f ",
"f p.s.i j.j f s.s e.z.f z.-.f s.f m p.f s.c.f g.i i s.i M.z.f z.m f s.f -.d.f z.y.f s.s.D.f i j f f ",
"@ @ @ @ @ @ @ @ @ @ @ @ @ @ @ @ @ @ @ @ @ @ @ @ @ @ @ @ @ @ @ @ @ @ @ @ @ @ @ @ @ @ @ @ @ @ @ @ @ @ ",
"@ 1 l.@ @ @ , ~ @ @ @ @ @ @ @ @ @ @ @ @ @ @ @ @ @ @ @ @ @ @ @ @ @ @ @ @ @ @ @ @ @ @ @ @ @ @ @ @ @ @ ",
"@ @ & u.@ Z.@ u.q.@ @ @ @ @ @ @ @ @ @ @ @ @ @ @ @ @ @ @ @ @ @ @ @ @ @ @ @ & F.@ @ @ / ~ 2 < l.@ @ @ ",
"@ @ @ @ @ @ @ @ @ @ @ @ @ @ @ @ @ @ @ @ @ @ @ @ @ @ @ @ @ @ @ @ @ @ @ @ @ @ @ @ @ @ @ @ @ @ @ @ @ @ "
};
