/* XPM */
static char *result[] = {
/* columns rows colors chars-per-pixel */
"50 50 60 1 ",
"  c black",
". c #010305",
"X c gray4",
"o c #161819",
"O c gray11",
"+ c #072032",
"@ c #204056",
"# c #0F456D",
"$ c #104A75",
"% c #104B76",
"& c #2A526F",
"* c #474C51",
"= c #585E63",
"- c #5D656A",
"; c #6D7072",
": c #787C7E",
"> c #176CAA",
", c #2277B6",
"< c #2278B6",
"1 c #707980",
"2 c #488DC0",
"3 c #4299D9",
"4 c #57A9E6",
"5 c #57AAE7",
"6 c #5BB2F2",
"7 c #5CB3F3",
"8 c #5DB6F7",
"9 c gray56",
"0 c #8C979F",
"q c gray59",
"w c gray62",
"e c #8F9AA1",
"r c gray64",
"t c gray71",
"y c gray72",
"u c gray79",
"i c gray83",
"p c gray84",
"a c gray85",
"s c #DADADA",
"d c gray86",
"f c #DDE4E9",
"g c gray88",
"h c #E2E2E2",
"j c gray91",
"k c #E9E9E9",
"l c gray92",
"z c gray93",
"x c #EEEEEE",
"c c #EFEFEF",
"v c #F3F3F3",
"b c #F4F4F4",
"n c #F6F6F6",
"m c #F7F9FA",
"M c #F9F9F9",
"N c gray98",
"B c #FBFBFB",
"V c #FEFEFE",
"C c white",
"Z c None",
/* pixels */
"ZZZZZ  ZZZZZZZZZZZZZZZZZZZZZZZZZZZZZZZZZZZZ  ZZZZZ",
"ZZZZZ4   ZZZZZZZZZZZZZZZZZZZZZZZZZZZZZZZZ    ZZZZZ",
"ZZZZ 8 Z          ZZZZZZZZZZZZZZ         ZC 8ZZZZZ",
"ZZZZ , CCZCCZpCZ                  wZZZCZZCC 8 ZZZZ",
"ZZZZ >CZZCZZCZZCZCCZCZZCZZCZZCZZCZCCZCZZCZZC> ZZZZ",
"ZZZZ8 CZZnZZCZCCZCCZCCZCZZZZZCZCCZCCZCCZCZZm 8ZZZZ",
"ZZZ 8C CCZCCZCZZZZZCZyCZCCZCCZCcZCZZZZZCZCC%C8 ZZZ",
"ZZZ 8#$CCZCZZCZZCZZCZZCZZCZCMZCZZCZZCZZCZZC% 8 ZZZ",
"ZZZ58                                        8 ZZZ",
"ZZZ88888888888888888888888888888888888888888886ZZZ",
"ZZZ8+                                        >8ZZZ",
"ZZZ8  1wZZCZCZCZCZCZCZCZZCZCZCZCZCZCZCZZCZ 1  8ZZZ",
"ZZ 8  1 CCCCZCZCZgZCZCjCCZCZCZZZCZCZCCCCZC 1  8ZZZ",
"ZZ 8  1 CZZZZCZCZCZCZCZZZZCZCZCZCZCZZZZCZC 1  8ZZZ",
"ZZ 8  1 ZCCCCrCZlZZZCZCCCCZCZZZxZCuCCCCZCZ 1  8ZZZ",
"ZZ 8  1 ZCZZZZCZCZCZCZiZZZZCZCZCZCZZZZCZCZ 1  8 ZZ",
"ZZ 8  1 ZZCCCCCCZZZZZCCCCCCZZZZZCCCCCCZZZZ 1  8 ZZ",
"ZZ 8  0 CZCZZZZZZCZCZCZZZZkZCZCZZZZZZCZCZC 0  8 ZZ",
"ZZ 3  0 ZZZZCCCCVZZZZCCCCCCZZZZZCCCCZqZZZC 0  8 ZZ",
"ZZ >  0 ZCZCZZZZCZCZCZCZZZZCZCZCZZZZCZCZCZ 0  8 ZZ",
"ZZ >  0 ZcZbZCCCCZCZZZCCCCZCZZZCCCCZCZZZCC 0  < ZZ",
"ZZ >  0 CZCZCZCZZCZCZCZC9ZCZCZCZCbZCZCZCZB 0Z > ZZ",
"ZZ > X0 CZCZCZCZZCZCZCZCiZCZCZCZaCZCZCZCZZ00Z > ZZ",
"ZZ >sZ0 CCZvZCZCCZCZZZChCCZBZCZCCtCZZZCZCC00C > ZZ",
"ZZ >CZ00ZZZCZCZZZZCZCZCZZZZCZCZZZZCZCZlZZC00C > ZZ",
"ZZ >ZC00CCCZZZZCCCCZZZlCCCZZZZCCCCZZZiCCCM0-ZO> ZZ",
"ZZ@>ZZ00ZZZZNZNZZZZNZNZZZZNZNZzZZNZNZNZZN 0 ZC> ZZ",
"ZZ8>ZC*0                                  0 Zd> ZZ",
"ZZ8>CZ 000000000000000000000000000000000000 CZ> ZZ",
"ZZ8.ZC 000000000000000000000000000000000000 ZC>7ZZ",
"ZZ& ZZf0                                  0fZZ 2ZZ",
"ZZ  Z f ZZZZZZZZZZZZZZZZZZZZZZZZZZZZZZZZZZ f Co ZZ",
"Z f C 0 ZZZZZZZZZZZZZZZZZZZZZZZZZZZZZZZZZZ f Z fZZ",
"Z f C;0 ZZZZZZZZZZZZZZZZZZZZZZZZZZZZZZZZZZ 0 Z fZZ",
"Z f  f=ZZZZZZZZZZZZZZZZZZZZZZZZZZZZZZZZZZZZ0fC fZZ",
"Z f  f ZZZZZZZZZZZZZZZZZZZZZZZZZZZZZZZZZZZZ f  f Z",
"Z f  0 ZZZZZZZZZZZZZZZZZZZZZZZZZZZZZZZZZZZZ f  f Z",
"Z f f0ZZZZZZZZZZZZZZZZZZZZZZZZZZZZZZZZZZZZZ 0  f Z",
"Z 0 f ZZZZZZZZZZZZZZZZZZZZZZZZZZZZZZZZZZZZZZ0f f Z",
"Z 0 e ZZZZZZZZZZZZZZZZZZZZZZZZZZZZZZZZZZZZZZ f f Z",
"Z 0 0 ZZZZZZZZZZZZZZZZZZZZZZZZZZZZZZZZZZZZZZ f f Z",
"Z 0 0ZZZZZZZZZZZZZZZZZZZZZZZZZZZZZZZZZZZZZZZ 0 0 Z",
"Z 0  ZZZZZZZZZZZZZZZZZZZZZZZZZZZZZZZZZZZZZZZZ  0 Z",
"Z 00 ZZZZZZZZZZZZZZZZZZZZZZZZZZZZZZZZZZZZZZZZ 00 Z",
"Z 00 ZZZZZZZZZZZZZZZZZZZZZZZZZZZZZZZZZZZZZZZZ 00 Z",
"Z 00ZZZZZZZZZZZZZZZZZZZZZZZZZZZZZZZZZZZZZZZZZZ00 Z",
"Z:0 ZZZZZZZZZZZZZZZZZZZZZZZZZZZZZZZZZZZZZZZZZZ 0 Z",
"Z 0 ZZZZZZZZZZZZZZZZZZZZZZZZZZZZZZZZZZZZZZZZZZ 0 Z",
"Z  ZZZZZZZZZZZZZZZZZZZZZZZZZZZZZZZZZZZZZZZZZZZZ  Z",
"ZZZZZZZZZZZZZZZZZZZZZZZZZZZZZZZZZZZZZZZZZZZZZZZZZZ"
};
