/* XPM */
static char *_4723aa694d24b90ab1c89abb31176a1zX0VUaWtBn86QEbb[] = {
/* columns rows colors chars-per-pixel */
"50 50 78 1 ",
"  c black",
". c #0F0A09",
"X c #090C0E",
"o c #130D0B",
"O c #17100E",
"+ c #101010",
"@ c #1B1310",
"# c #1F1311",
"$ c #1E1512",
"% c #13191C",
"& c #300D03",
"* c #361105",
"= c #3F170C",
"- c #231714",
"; c #271A16",
": c #271A17",
"> c #2B1D19",
", c #2E1D1A",
"< c #2E1F1B",
"1 c #3F1D13",
"2 c #2E201B",
"3 c #2F201C",
"4 c #32201D",
"5 c #32221D",
"6 c #171E22",
"7 c #1B2327",
"8 c #1C252A",
"9 c gray13",
"0 c gray16",
"q c #352520",
"w c #362620",
"e c #3E2723",
"r c #392822",
"t c #3C2A24",
"y c #212B30",
"u c #253035",
"i c #263238",
"p c #313131",
"a c #303235",
"s c #323537",
"d c #5F1B06",
"f c #661E08",
"g c #48261B",
"h c #4E291D",
"j c #6C210A",
"k c #422A26",
"l c #452F29",
"z c #463029",
"x c #4D322C",
"c c #4E342E",
"v c #51362F",
"b c #523931",
"n c #553932",
"m c #593C34",
"M c #5B3E35",
"N c #5B4036",
"B c #5D4037",
"V c #5F4138",
"C c #63443B",
"Z c #6A493F",
"A c #353E42",
"S c #414141",
"D c #43494C",
"F c #4D4A4A",
"G c #484F52",
"H c #515151",
"J c #6D4C41",
"K c #6E4D41",
"L c #795548",
"P c gray38",
"I c #8F2809",
"U c #952C0B",
"Y c #BF360C",
"T c #A23210",
"R c #C5390E",
"E c #CB3C10",
"W c #D24013",
"Q c #D84315",
/* pixels */
"wJJJJJwLLLLLLL2BBBBBN3NB2zNVN2BBBBBB5LNNLLL2BBBBBB",
"bbJJJJrLLLLLLt2BBBBB,l3:Cz>zVlzBBBBB2LLLLLL2BBBBBB",
"JJJJJJtLLLLLML3BBBBB>lCLMZJz>z2BBBBBBtLLLLL2BMBMBB",
"wwwwwO22tLLLLtO2222:lLMZMMZZJo>BBBBNBrLV..t+lMCBBB",
"BBBBBBBBwww@wJJwe-zZz-e#&=,,:CJ:$5r@,-rv$eee-###.-",
"BBBBBBBBwJJbJJJ>-JLZZ,&YdYI=,MMLz5JJZKKK#eeeeee#ee",
"BBBBBBBBwJJJJJJoJLxe@IYYdYYYf@eMLC5ZbbKK5eeeeee#ee",
"2zBBBBBBwJJJJJ5JLxe=fYYYdYYYdY=eJxJ5nZKKreeeeeeeee",
"BzBBBBBBwJJJJ@MLZe=YdYYYdYYYdYY=5LZ:vZKK5eeeeeeeee",
"BBBBBBBBwJJJ5M::k=YYdYQRdRYYdYYYg5:lznKKreeeeeeeee",
"BzBBBBBBwJJbzLZk YYYdEQQdEYYdYYYd@BLZ5KKJ-eeeeeeee",
"OtB22222@ww3JZe#dYYYfQWQjEEYjYRYdI,NLC5KZ#ee#eeeee",
"LLtL#eeeee#CLx,IdYYYjQEQjQWWjRERdY=eZL>55o$eL2$$##",
"LLLL#eeeee:LLe=YdYWEjQQQjQQQjQQQdYI,ZZCeLLLLLtJJJZ",
"LLLteee,e,lZM,IYdEQQjQQQjQQQjQQQjEY=NLJoLLLLLtJJJJ",
"LLLteee,#.CMM=YEdWQQjQWQjQEQjQEQjQYdxLN;LLLLLtJJJJ",
"LLLteeeee-CLMdEWjQQQjQEQjQEQjQEQjQWR#LZ:LLLLLrJJJJ",
"LLLreeeee@:5-jWQjQQQjjQQjQQEjQQQjQQR.::oLLLMtrJJJJ",
"LLN$eeeee#CCvjQQjQETXDhj*jjj*jjj*jjf#CC:LLLLL5JJJJ",
"LLe#eeeee#CMxjWQjQU%iaAGDFGDDFGDFGDD#xL:LLLLLrJJJJ",
";>:o,,:2,OCLejEQjWW*yiu%%6%%%6%%%6%%-xLt,222222Ore",
"cxcx:2BBV2CLejWQjQQQ*7UEfEEEfEEEfEEE#NLtBNBBBBB5LL",
"cccc:BBBB2CLejQWjQQQjEQEjQQQjQWWjQQQ#LZtBBBBBBB5LL",
"cccc:BBBB2JLxjQEjQQQjQQEjQQEjQQEjQWW#LxeBBBBBBBrLL",
"cccc:BBBB2ZMMjQWjQWWjQQEjQQWjQQWjQEQ-LLrBBBBBBVtLL",
"cccc:2BBB2ZZejQQjQQWjQQEjQQQjQQQjQWQ#LLeBBBBBBBtLL",
"cccc;zzBB2::-jQT%1QQjQQWjQQQjQQQjQQQ.5:oBBBBBB3LLL",
"cccc;BBBB2CJvjTX1*1QjQQQjQQQjQQQjQQQ#CC53BBBBB3LLL",
"cccc:VBBV3LLxjj%jj%QjQQQjQEQjQQQjQQQ@LLt+3223r5ttt",
"wwwwww$tt@LZejT8%sgQjQWQjQWQjQWQjQQQ-xLeeee-JJKJJK",
"JJJJJJtLLtLLejQT*dWQjQEQjQQQjQEQjQQQ$eLeeee$JJJJJb",
"JJJJJJtLLtMZMjQQjQQEjQWQjQQQjQWQfQQQ$MLreee$JJJJK5",
"JJJJJbNLLtLLMjQQjQQEjQQQjQQQjQQQjQQE#Lxteek<JJJJJJ",
"JJJJJwLLLtLLtjQQjQQWjQQQjQQEjQQQjQEQ#LJreek5ZZJJJJ",
"JJJJJwLLLtLLxjQQjQQQjQQQjQQQjQQQjQWQ@LLreeerJJJJJJ",
"JJJwbwLLL@:5-jEQjWQQjjQQjQQQjQQQjQQQ.::-eee5JJJJKK",
"w>OVz2wt @CCvjEQjWWTXDhj*jjj*jjj*jjj@bJ5-@@@555r5r",
"et3MVNBBV,LLxjQQjQT%uaAGDFGDDFGDFGDD$NLtNBVzzC5KJJ",
"ee3VMBBBV,LJejQQjQQ*8uu%%6%%%6%%%6%%#NLrBBB2BB2JJJ",
"ee3NVBBBN3LMejQEjQQQ*8UEjREEjRERjREE#LJeBBBBBN5JJK",
"ee2BBBBBVOLMejQEjQWWjEQQjQQWjQQQfQQQ$LJtBBBBBB2ZKK",
"ee2BBBBB23MZejQWjQQEjQQEjQWWjQQQjQQQ$LLtBBBBBB5JKK",
"ee2BBBBBN2ZLejQQjQQWjQQWjQWQjQWQjQEQ#MLtBBBBBBrKKK",
"ee2BBBBBV2LLMjQQjQQQjQQQjQQQjEQWjQEQ#MLrBBBBBBrKKK",
"ee2BNz22B5:>-*jj*jjj*jjj*jjj*jjj*jjj.;;oBBNNBNwJZK",
"++++++++O0HPPPPPPPPPPPPPPPPPPPPPPPPPPPPH++++O+++X9",
"p92799aa72999972pSSSSSSSSSSSHPPPPPHp99p9279p097299",
"99999992%7990p%79999990pp7279pSSN7:79p999999999799",
"9999p0999p09999999009999999990p077279999999990p099",
"990p999999999999999009999999999960pp999990p0999999"
};
