/* XPM */
static char *result[] = {
/* columns rows colors chars-per-pixel */
"50 50 151 2 ",
"   c #070906",
".  c #070908",
"X  c #090B0A",
"o  c #14140D",
"O  c #141514",
"+  c #1A1D1A",
"@  c #111224",
"#  c #1C2E21",
"$  c #2F2B2A",
"%  c #342E2E",
"&  c #282735",
"*  c #3F4933",
"=  c #754A2A",
"-  c #4A6830",
";  c #546C37",
":  c #597F3C",
">  c #4A4846",
",  c #434250",
"<  c #5D5D6A",
"1  c #6D6F7E",
"2  c #77777F",
"3  c #8A1816",
"4  c #861B1A",
"5  c #891B1C",
"6  c #852B1C",
"7  c #8E2121",
"8  c #962925",
"9  c #9E2B2B",
"0  c #A12C2C",
"q  c #A23530",
"w  c #A04639",
"e  c #AA5246",
"r  c #578736",
"t  c #598535",
"y  c #5C8A35",
"u  c #5D863C",
"i  c #5E8C3C",
"p  c #5F903D",
"a  c #618B37",
"s  c #63863C",
"d  c #608C3D",
"f  c #688B3C",
"g  c #5E8B42",
"h  c #5F9040",
"j  c #628D42",
"k  c #6A8E43",
"l  c #678E4A",
"z  c #65904A",
"x  c #6B934C",
"c  c #72954E",
"v  c #6D8D53",
"b  c #6B8B58",
"n  c #6E9352",
"m  c #6E9853",
"M  c #729654",
"N  c #759953",
"B  c #789957",
"V  c #759659",
"C  c #7D9464",
"Z  c #779960",
"A  c #7EA168",
"S  c #DB8E24",
"D  c #E69929",
"F  c #E7A228",
"G  c #869452",
"H  c #889C6D",
"J  c #85A36C",
"K  c #89A46E",
"L  c #88A875",
"P  c #92A77C",
"I  c #D78E4F",
"U  c #D98D4F",
"Y  c #D08750",
"T  c #D18952",
"R  c #DA8E51",
"E  c #DC935E",
"W  c #DB9B6E",
"Q  c #7B8BB2",
"!  c #8E8B8A",
"~  c #888790",
"^  c #95989F",
"/  c #96A988",
"(  c #9EAE8D",
")  c #94B187",
"_  c #9CB686",
"`  c #97B884",
"'  c #9EB48D",
"]  c #9FB493",
"[  c #A1B58C",
"{  c #A0B690",
"}  c #A6B996",
"|  c #B1BE9E",
" . c #ADBEA5",
".. c #B1BFA1",
"X. c #B3BDAE",
"o. c #EDB88F",
"O. c #E6B990",
"+. c #EAB991",
"@. c #CEAEAC",
"#. c #DAAEAC",
"$. c #AAC194",
"%. c #AFC7A3",
"&. c #AFC8AA",
"*. c #B2C4A4",
"=. c #B9C7A7",
"-. c #B2C8A7",
";. c #B4C6AC",
":. c #BAC2AB",
">. c #B4C9AA",
",. c #BAC9AC",
"<. c #B1C4B2",
"1. c #BCC6B2",
"2. c #B6C8B3",
"3. c #B9CAB3",
"4. c #C4D2BD",
"5. c #EFC9A5",
"6. c #F1CDA7",
"7. c #F5CFAB",
"8. c #F6D0AD",
"9. c #E4C9B4",
"0. c #F8CEB2",
"q. c #FDD0B1",
"w. c #C5C6CA",
"e. c #D0CFCD",
"r. c #CCD3C5",
"t. c #C8D9C0",
"y. c #C6D2CA",
"u. c #CBD6C9",
"i. c #CECED3",
"p. c #D1D1D5",
"a. c #D7DED4",
"s. c #DCDCD6",
"d. c #D6DCD9",
"f. c #DDDDDD",
"g. c #E1DDDC",
"h. c #DCE3D6",
"j. c #DEE1DC",
"k. c #E2E1DE",
"l. c #E9E6DE",
"z. c #D4D3E0",
"x. c #DDDDE2",
"c. c #E1DFE2",
"v. c #E4DDE9",
"b. c #DEE2E3",
"n. c #DAE0E8",
"m. c #E2E2E2",
"M. c #E9E7E4",
"N. c #E9E9E7",
"B. c #E5E3E9",
"V. c #E9EAEA",
"C. c #EDEEF0",
/* pixels */
"d d d d d d d d d d d d d d d d d d d i d d d d d d d d d d d d d d d d d d d j d d d d d d d d d d ",
"d d d d d d d d d d d d d d d d d d i j d d d d u d j d d d d u d d d d d d d d d d i d j d i d d d ",
"i d d d d d d d d d d d d d d u d d d d d d d d d d d d d d d d d d d d u d d d d d d d d d d d d d ",
"d d d d j d d d d d d d d d s d d d d d d d d d d d d d d d d d d d d d d d d d d d d d d d d p i d ",
"N.N.N.V.N.N.N.N.N.N.N.N.N.N.N.V.V.N.V.N.N.N.V.N.N.N.N.N.V.N.N.N.N.N.N.N.N.N.N.V.V.N.M.N.N.u i d d d ",
"f.f.f.f.f.f.f.f.f.f.f.f.f.f.f.f.f.f.f.f.f.f.f.f.f.f.f.x.f.f.f.f.f.x.f.f.f.f.f.f.f.f.f.f.V.g d d d d ",
"f.d u j.d d f.d d K d i i ' d d f.d d g.d j f.d d s.i d y u d d s.d d f.d u f.d d s.j f.N.i i d d d ",
"a f.f.d s.f u f.d u.f.i x.;.i f.d c f.d s.m.d f.y i j.i b.f.d f.M i f.d =.d.d f.r.k f.f.N.i d d j i ",
"d k.M.d b.b i m.v t.m.l m.=.z m.i C m.d j.M.d m.f g M.l b.m.z m.V l c.d ,.k.d m.u.d m.f.V.i d p i d ",
"f.d d f.d i j.d d K d i i ' d d j.i d f.i d f.d d s.d a y d d i s.d d x.d d g.d d g.d f.N.g d i d d ",
"d g.b.d n.k d x.a r.f.d f.2.a c.i N c.d g.m.d m.g i j.i B.j.a b.m i f.i >.x.d f.u.d g.f.N.i d d d d ",
"d M M i N h.u V h.c V j.B M b.V i d.B d N M d V b.j V b.V V j.V ; % $ % / V d V ( j V f.V.i d d d d ",
"f.d d f.d d j.i d K d d d ' d d j.d d f.i i f.u i O i d u d d % e.% N.N.! d f.i d f.d f.N.i d d d i ",
"d f.f.d f.j u j.d r.f.d f.2.d f.d M f.d f.m.d x.O O m.g b.f.d % > N.% N.% f.d f.r.d f.f.V.i d d d p ",
"i s g i j h.d i s.d i j.i i j.p i d.g i i a d 0 O d p s.f u f.% M.M.% N.% i i h K d u f.N.i i d d d ",
"s.d i j.i y j.j g K d i i ' a d g.d d f.d a 0 5 s s.d p i d d d > N.V.% * i f.d j g.d f.N.g d d d d ",
"d f.f.d g.j d s.d r.f.a f.>.d f.a M f.d b.0 5 d.E U R E x.f.d f.: % % % ;.f.d f.r.d g.f.N.i d d i j ",
"d a d u d b.d d j.d d j.g i j.d a a.i i 0 5 i W o.I I R E d s.d j s.j u [ j d d K u a f.V.i d d d d ",
"k.l l c.l d m.l i P x u k } d l m.a x 0 5 l o.6.7.W I U R E d l s.y z m.l l m.l n b.l f.N.i d d d d ",
"a f.f.d g.j i f.d r.f.d f.;.d f.a M 0 5 g.8.8.0.5.+.Y R R U d x.M # f.p ;.f.d f.r.d x.f.V.i d g i d ",
"d y i d g b.d i g.d d f.i d b.d d 0 9 d +.7.8.0.8.8.O.T T R g.d O + + i ' i d d K u d j.V.i d d d d ",
"K u.u.J y.k J u.d 4.u.d r.,.d u.A 0 0 J +.8.7.8.7.7.7.8.+.T d O O O u.J $.y.J u.3.K u.f.V.i d d d d ",
"d j.f.u j.j d f.d r.f.d c.;.d j.y 9 0 4 +.8.e 8.8.7.Q 8.T f.0 7 o o j.d >.f.d f.u.d f.f.N.i d d d d ",
"d y i d i c.d d g.d d x.d d f.d i 0 0 9 o.7.7.0 8.8.7.O.i 9 5 6 u b.d i ' d d d K u i f.N.i d d i d ",
"j j.x.i g.j i f.u t.c.d s.>.i x.i 0 9 9 N.O.8.7.7.8.+.u 0 4 = x.V g x.i =.g.i f.r.a x.f.V.i d d d d ",
"g j.x.g x.k g x.j r.f.u k.>.i f.0 9 0 0 q M.o.o.+.+.f.9 8 @.u x.x i b.g ;.f.u f.y.i x.f.N.g d d d d ",
"u i i d i c.i d g.d d g.d d f.0 0 l.8 S F 0 0 0 s.d 0 5 j d j.d d f.d d ' d d i J a d f.N.i d d d d ",
"d j.s.i g.j i f.d r.f.d f.2.9 0 0 V.N.0 D 0 0 0 0 0 5 g c.j.d f.M d b.d ;.f.d b.r.d f.j.V.i d i d d ",
"d g.s.j f.j j g.d r.s.d x.9 0 0 0 9 #.M.0 9 4 5 5 5 g.d c.g.d g.Z d s.j &.j.k s.t.j s.f.N.i d d d p ",
"d i d d i m.d d g.d i d.9 0 9 0 0 0 9 9 5 u i i f.d d f.d d f.d d j.d d ' i u d K d d f.V.i d d d g ",
"a j.f.d f.j i f.d r.s.3 0 0 9 0 0 9 0 5 f.m.d f.i u x.d x.f.d f.M d f.d ;.f.d f.r.d f.f.N.i d d d d ",
"3.{ ' 1.[ f 1.' d  .O O 5 0 9 0 9 0 5 1.' [ 1.' d >.[ d _ _ d [ 3.j ' 2.L ] 3.{ ) 3.[ f.V.i d d d d ",
"d u a d f j.i d x.X O O O 4 9 9 0 3 d d u t d a x.d d k.i u k.d d g.d d _ s d d K i i f.N.i d d d d ",
"d f.f.d f.j i j.j 7.X i . O 6 9 6 M f.d f.m.d j.u i g.d b.j.d j.M d f.d ;.f.d s.r.d f.f.N.i d d d i ",
"c.i u j.u p f.i 8.+.i i O O O 4 g.i i g.y y f.i i x.i d y u d i s.d i f.i i f.i u c.u f.V.i d d d d ",
"i u d d j m.i 0 w d i 8.X O . u d d.i d i a d u c.d i s.j a j.i i s.i d ' d d i K i i f.N.g i d d d ",
"d f.f.- f.j 0 5 i r.q.+.9.  d j.d M f.d x.c.d f.i i f.d c.f.d f.M d f.d ;.f.d f.r.d f.f.N.i d d d d ",
"f.d d f.  O 5 d d 9 3 G d ' d d f.d d x.d d f.d i f.d d r d d d s.d d f.d d f.d d f.d f.N.i d d d i ",
"d t t d r . u r 0 5 s c.t u m.r d a.u d r t d r g.y r m.u u m.r a v.r d ' r d r H j y f.V.i d d d d ",
"a f.f.u f.k i O 5 y.f.d f.3.d f.s M f.d x.s.d f.s u x.d k.f.i f.M y x.d ;.f.d f.u.u f.f.N.g p d d d ",
"f.d d f.d u f.. . K d d d ' i i j.j i f.d d f.d d f.d a u i a i s.d d f.i d f.d u g.d s.V.i d d d d ",
"i *.>.d -.X.d ;.X $.*.*.;.` | ;.d :.;.d -.%.d ;.| d ;.*.&.*...;.v ..;.d 1.<.d ;.>.i ;.f.N.d d d d d ",
"d f.f.d b.k u j.i u.f.i x.;.i f.a N f.d d.b.i j.i i j.i k.j.j j.m d f.d <.f.d f.u.a x.f.V.i d d d d ",
"f.d d j.i i f.j j K i d i ' d d f.d d f.d d f.d d f.d i u a u j s.d d f.d d f.d p g.d f.N.g d d d u ",
"d f.f.d g.j d s.d r.f.d f.2.u f.d M f.d s.x.u s.u i s.u c.f.g s.M s d.d ;.f.u f.r.d f.f.N.i d d d d ",
"d s.f.d k.j u j.s r.f.p f.;.d f.d m x.u f.m.j b.i i g.d x.f.d f.m d g.d ;.f.j f.r.d b.f.N.i d d d u ",
"@ @ @ @ @ @ @ @ @ @ @ @ @ @ @ @ @ @ @ @ @ @ @ @ @ @ @ @ @ @ @ @ @ @ @ @ @ @ @ @ @ @ @ @ @ @ @ @ @ @ ",
"@ 1 z.@ @ @ , ~ @ @ @ @ @ @ @ @ @ @ @ @ @ @ @ @ @ @ @ @ @ @ @ @ @ @ @ @ @ @ @ @ @ @ @ @ @ @ @ @ @ @ ",
"@ @ & i.@ V.@ p.w.@ @ @ @ @ @ @ @ @ @ @ @ @ @ @ @ @ @ @ @ @ @ @ @ @ @ @ @ & C.@ @ @ ^ ~ 2 < x.@ @ @ ",
"@ @ @ @ @ @ @ @ @ @ @ @ @ @ @ @ @ @ @ @ @ @ @ @ @ @ @ @ @ @ @ @ @ @ @ @ @ @ @ @ @ @ @ @ @ @ @ @ @ @ "
};
