/* XPM */
static char *result[] = {
/* columns rows colors chars-per-pixel */
"50 50 202 2 ",
"   c black",
".  c #010101",
"X  c #020202",
"o  c gray3",
"O  c #090909",
"+  c gray4",
"@  c #0C0C0C",
"#  c gray5",
"$  c gray6",
"%  c #101010",
"&  c #111111",
"*  c gray7",
"=  c gray8",
"-  c #151515",
";  c #161616",
":  c gray9",
">  c #181818",
",  c #191919",
"<  c gray10",
"1  c #1B1B1B",
"2  c gray12",
"3  c #222222",
"4  c #232323",
"5  c gray14",
"6  c #252525",
"7  c gray15",
"8  c #272727",
"9  c gray16",
"0  c #2A2A2A",
"q  c #2C2C2C",
"w  c #2D2D2D",
"e  c #2F2F2F",
"r  c gray19",
"t  c #313131",
"y  c #323232",
"u  c #343434",
"i  c #353535",
"p  c #373737",
"a  c gray22",
"s  c #393939",
"d  c #3A3A3A",
"f  c gray23",
"g  c gray24",
"h  c #3F3F3F",
"j  c #247029",
"k  c #247129",
"l  c #2A732F",
"z  c #2E7532",
"x  c #307634",
"c  c #327736",
"v  c #337737",
"b  c #357638",
"n  c #37773A",
"m  c #36783A",
"M  c #37783B",
"N  c #3C7540",
"B  c #3F7943",
"V  c #414141",
"C  c #434343",
"Z  c #464646",
"A  c #484848",
"S  c gray29",
"D  c #4B4B4B",
"F  c #4C4C4C",
"G  c gray30",
"H  c #4E4E4E",
"J  c gray31",
"K  c gray32",
"L  c #565656",
"P  c gray34",
"I  c #585858",
"U  c #5F5F5F",
"Y  c #417644",
"T  c #447547",
"R  c #4B754C",
"E  c #497E4C",
"W  c #4C7F50",
"Q  c #587D5A",
"!  c #626262",
"~  c #646464",
"^  c #676767",
"/  c DimGray",
"(  c gray42",
")  c #6D6D6D",
"_  c #6F6F6F",
"`  c #637E64",
"'  c gray44",
"]  c #717371",
"[  c #727272",
"{  c gray46",
"}  c #777777",
"|  c #797979",
" . c gray48",
".. c #7B7B7B",
"X. c #7C7C7C",
"o. c gray49",
"O. c #7E7E7E",
"+. c gray50",
"@. c #698D6C",
"#. c #718B72",
"$. c #758F77",
"%. c #7A827A",
"&. c #7A847A",
"*. c #7F837F",
"=. c #778E79",
"-. c #7A907B",
";. c #808080",
":. c gray51",
">. c #838383",
",. c #848484",
"<. c #868686",
"1. c gray53",
"2. c #888888",
"3. c gray54",
"4. c #8B8B8B",
"5. c gray55",
"6. c #8D8D8D",
"7. c #8E8E8E",
"8. c gray56",
"9. c #8A9B8B",
"0. c #909090",
"q. c gray57",
"w. c #929292",
"e. c #939393",
"r. c gray58",
"t. c #959595",
"y. c #959694",
"u. c gray59",
"i. c #979797",
"p. c #989898",
"a. c gray60",
"s. c #999A99",
"d. c #9A9A9A",
"f. c #9B9B9B",
"g. c gray61",
"h. c #9D9D9D",
"j. c #9E9C9E",
"k. c gray62",
"l. c #9F9F9F",
"z. c #97A898",
"x. c #A9A9A9",
"c. c #AAAAAA",
"v. c #ACACAC",
"b. c gray68",
"n. c gray69",
"m. c #B1B1B1",
"M. c #B2B2B2",
"N. c gray70",
"B. c #B4B4B4",
"V. c gray72",
"C. c #B9B9B9",
"Z. c #BBBBBB",
"A. c #BCBCBC",
"S. c #BEBFBE",
"D. c #C0C0C0",
"F. c gray76",
"G. c #C3C3C3",
"H. c gray79",
"J. c gray80",
"K. c #CDCDCD",
"L. c #CECECE",
"P. c gray81",
"I. c gray82",
"U. c #D2D2D2",
"Y. c LightGray",
"T. c #D5D5D5",
"R. c #D7D7D7",
"E. c #D8D8D8",
"W. c gray85",
"Q. c #DADADA",
"!. c #DDDDDD",
"~. c gray87",
"^. c #DFE8DF",
"/. c gray88",
"(. c #E1E1E1",
"). c #E2E2E2",
"_. c #E4E4E4",
"`. c gray90",
"'. c #E6E6E6",
"]. c #E7E7E7",
"[. c gray91",
"{. c #E9E9E9",
"}. c #EAEAEA",
"|. c gray92",
" X c #ECECEC",
".X c gray93",
"XX c #EEEEEE",
"oX c #EFEFEF",
"OX c gray94",
"+X c #F1F1F1",
"@X c gray95",
"#X c #F4F4F4",
"$X c gray96",
"%X c #F6F6F6",
"&X c gray97",
"*X c #F8F8F8",
"=X c #F9F9F9",
"-X c #FBFBFB",
";X c gray99",
":X c #FDFDFD",
">X c #FEFEFE",
",X c white",
/* pixels */
">X>X>X>X>X>X>X>X>X>X>X>X>X>X>X>X>X>X>X>X>X>X>X>X>X>X>X>X>X>X>X>X>X>X>X>X>X>X>X>X>X>X>X>X>X>X>X>X>X>X",
">X>X>X>X>X>X>X>X>X>X>X>X>X>X>X>X>X>X>X>X>X>X>X>X>X>X>X>X>X>X>X>X>X>X>X>X>X>X>X>X>X>X>X>X>X>X>X>X>X>X",
">X>X>X>X>X>X>X>X>X>X>X>X>X>X>X>X>X>X>X>X>X>X>X>X>X>X>X>X>X>X>X>X>X>X>X>X>X>X>X>X>X>X>X>X>X>X>X>X>X>X",
">X>X>X>X>X>X>X>X>X>X>X>X>X>X>X>X>X>X>X>X>X>X>X>X>X>X>X>X>X>X>X>X>X>X>X>X>X>X>X>X>X>X>X>X>X>X>X>X>X>X",
">X>X>Xj k k k k k k k k k k k k k k k k k k k k k k k k k k k k k k k k k k k k k k k k k k j >X>X>X",
">X>X>Xl c c c c c c c c c c c c c c c c c c c c c c c c c c c c c c c c c c c c c c c c c c l >X>X>X",
">X>X>Xl c c c c c c c c x x x x x x x x x x x x x x x x x x x x x x x x x x x x c c c c c c l >X>X>X",
">X>X>Xl c c c c c c c c >.>.>.>.>.>.>.>.>.>.>.>.>.>.>.>.>.>.>.>.>.>.>.>.>.>.>.*.c c c c c c l >X>X>X",
">X>X>Xl c c c c c c c j.f.f.d.g.f.d.f.d.a.d.d.g.d.f.g.d.f.f.f.f.f.d.:.,.,.>.a.d.n c c c c c l >X>X>X",
">X>X>Xl c c c c c c E B.l.=X XU.r.! t %   O 1 G | N.E.oX;X,X%X).G.e.U 3 *     > &.B c c c c l >X>X>X",
">X>X>Xl c c c c c c s.O.H o.+.w.6.q.4.<.,.<.1.w.w.w.5.+. .} ..>.8.q.e.1.,.>.,.:.V.` c c c c l >X>X>X",
">X>X>Xl c c c c c #.w # + * 8 U e.G.).%X>X;XoXE.N.O.G 1 O   % t ! r.U. X*X,X,XV !.%.c c c c l >X>X>X",
">X>X>Xl c c c c c f.@X,Xl.=X XU.r.! t @     ; Z | b.E.oX:X,X%X).G.6.I 1       > V g Q c c c l >X>X>X",
">X>X>Xl c c c c $..X+X,Xl.=X XU.r.! t %   o 1 Z O.b.E.oX;X,X%X).G.e.U 8 $     > V { <.c c c l >X>X>X",
">X>X>Xl c c c c $.a.a.a.f.a.a.f.f.g.h.h.h.h.h.h.f.f.d.a.a.a.a.d.d.f.h.h.h.h.h.h.g.g.f.c c c l >X>X>X",
">X>X>Xl c c c c $.a.a.p.f.p.d.f.f.g.h.k.k.k.k.g.f.f.d.a.p.p.a.a.d.f.f.k.k.k.k.f.h.g.f.c c c l >X>X>X",
">X>X>Xl c c c c $.|.+X,Xg.=X XU.r.! t < @ = 6 G O.N.E.oX;X,X%X).G.e.U 3 * O @ 5.V [ c.c c c l >X>X>X",
">X>X>Xl c c c c $.Q.!.].g.`.E.H.y._ A r 5 9 a U ,.b.P.~.`.].(.I.C.e.^ p 0 5 5 4.L ..c.c c c l >X>X>X",
">X>X>Xl c c c c $.e > # d., w U e.G./.%X,X;XoXE.N.O.G 7 -   % t ! r.U. X=X,X,X;.W.b.c.c c c l >X>X>X",
">X>X>Xl c c c c $.w.7.5.f.5.7.r.t.i.r.q.q.w.0.p.u.t.r.6.6.5.6.8.e.8.t.0.q.0.q.,.w.e.c.c c c l >X>X>X",
">X>X>Xl c c c c $.|.+X,Xg.=X XU.r.! t % # - 7 G O.N.E.oX;X,X%X).G.e.U w * + # 3.V [ c.c c c l >X>X>X",
">X>X>Xl c c c c $.D V y f.f A ( r.Z.T.`. X{./.K.v.>.! V u t d F ' r.A.Q.'. X X:.K.x.c.c c c l >X>X>X",
">X>X>Xl c c c c $.q > o d., w U e.G.).%X,X;XoXE.N.O.G 7 O   % t ! r.U. X=X,X,X;.W.b.c.c c c l >X>X>X",
">X>X>Xl c c c c $. X+X,Xg.&X}.P.r.! t : o % 3 S X.m.E.oX-X,X$X).F.q.P 7 &   o 3.V [ c.c c c l >X>X>X",
">X>X>Xl c c c c $..X+X,Xg.=X`.U.r.~ t & X + 2 G O.N.R.oX;X,X%X).G.5.U 4 $ . X 3.C [ c.c c c l >X>X>X",
">X>X>Xl c c c c $.e > X d., w U e.G.).OX,X;XoXE.N.O.G 1 O   % t ! r.U. X=X=X,X;.W.b.c.c c c l >X>X>X",
">X>X>Xl c c c c $.C p > d.6 s ^ t.D.!.XX&X#X[.Y.n.;.P q 1 - 3 h / i.J._.+X&X$X>.L.x.c.c c c l >X>X>X",
">X>X>Xl c c c c $.|.+Xl.f.f.f.f.f.f.f.f.f.f.f.f.f.f.f.f.f.f.f.f.f.f.f.f.f.f.f.f.V [ c.c c c l >X>X>X",
">X>X>Xl c c c c $.M.M.g.=.=.=.=.=.=.=.=.=.=.=.=.=.=.=.=.=.=.=.=.=.=.=.=.=.=.=.-.P 7.c.c c c l >X>X>X",
">X>X>Xl c c c c $.e > f.c c c c c c c c c c c c c c c c c c c c c c c c c c c b ! b.c.c c c l >X>X>X",
">X>X>Xl c c c c $.S.+.W c c c c c c c c c c c c c c c c c c c c c c c c c c c v ) 2.c.c c c l >X>X>X",
">X>X>Xl c c c c $.|.u.z c c c c c c c c c c c c c c c c c c c c c c c c c c c c [ [ c.c c c l >X>X>X",
">X>X>Xl c c c c $.i f.c c c c c c c c c c c c c c c c c c c c c c c c c c c c c Y K c.c c c l >X>X>X",
">X>X>Xl c c c c $.e f.c c c c c c c c c c c c c c c c c c c c c c c c c c c c c N J c.c c c l >X>X>X",
">X>X>Xl c c c c $.f.M c c c c c c c c c c c c c c c c c c c c c c c c c c c c c c [ c.c c c l >X>X>X",
">X>X>Xl c c c c $.f.m c c c c c c c c c c c c c c c c c c c c c c c c c c c c c c ] c.c c c l >X>X>X",
">X>X>Xl c c c c $.f.c c c c c c c c c c c c c c c c c c c c c c c c c c c c c c c R c.c c c l >X>X>X",
">X>X>Xl c c c c @.9.c c c c c c c c c c c c c c c c c c c c c c c c c c c c c c c T z.c c c l >X>X>X",
">X>X>Xl c c c c c c c c c c c c c c c c c c c c c c c c c c c c c c c c c c c c c c c c c c l >X>X>X",
">X>X>Xl c c c c c c c c c c c c c c c c c c c c c c c c c c c c c c c c c c c c c c c c c c l >X>X>X",
">X>X>X^.^.^.^.^.^.^.^.^.^.^.^.^.^.^.^.^.^.^.^.^.^.^.^.^.^.^.^.^.^.^.^.^.^.^.^.^.^.^.^.^.^.^.^.>X>X>X",
">X>X>X>X>X>X>X>X,X>X>X>X>X,X>X>X>X>X>X,X>X,X>X>X>X>X,X,X>X>X>X>X,X>X,X>X>X>X>X>X>X>X>X>X>X>X>X>X>X>X",
">X>X>X>X>X>X>X>X>X>X>X>X>X>X>X>X>X>X>X>X>X>X>X>X>X>X>X>X>X>X>X>X>X>X>X>X>X>X>X>X>X>X>X>X>X>X>X>X>X>X",
">X>X>X>X>X>X>X>X>X>X>X>X>X>X>X>X>X>X>X>X>X>X>X>X>X>X>X>X>X>X>X>X>X>X>X>X>X>X>X>X>X>X>X>X>X>X>X>X>X>X",
">X>X>X>X>X>X>X>X>X>X>X>X>X>X>X>X>X>X>X>X>X>X>X>X>X>X>X>X>X>X>X>X>X>X>X>X>X>X>X>X>X>X>X>X>X>X>X>X>X>X",
">X>X>X>X>X>X>X>X>X>X>X>X>X>X>X>X>X>X>X>X>X>X>X>X>X>X>X>X>X>X>X>X>X>X>X>X>X>X>X>X>X>X>X>X>X>X>X>X>X>X",
">X>X>X>X>X>X>X>X>X>X>X>X>X>X>X>X>X>X>X>X>X>X>X>X>X>X>X>X>X>X>X>X>X>X>X>X>X>X>X>X>X>X>X>X>X>X>X>X>X>X",
">X>X>X>X>X>X>X>X>X>X>X>X>X>X>X>X>X>X>X>X>X>X>X>X>X>X>X>X>X>X>X>X>X>X>X>X>X>X>X>X>X>X>X>X>X>X>X>X>X>X",
">X>X>X>X>X>X>X>X>X>X>X>X>X>X>X>X>X>X>X>X>X>X>X>X>X>X>X>X>X>X>X>X>X>X>X>X>X>X>X>X>X>X>X>X>X>X>X>X>X>X",
">X>X>X>X>X>X>X>X>X>X>X>X>X>X>X>X>X>X>X>X>X>X>X>X>X>X>X>X>X>X>X>X>X>X>X>X>X>X>X>X>X>X>X>X>X>X>X>X>X>X"
};
