/* XPM */
static char *d530502306724af1ca99354742f53817PTWIup3FvPM58gYS[] = {
/* columns rows colors chars-per-pixel */
"50 50 245 2 ",
"   c #043502",
".  c #063C02",
"X  c #0B3E03",
"o  c #0A380C",
"O  c #153D08",
"+  c #054402",
"@  c #0C4304",
"#  c #054B01",
"$  c #0B4B02",
"%  c #0D4E0B",
"&  c #114605",
"*  c #124C05",
"=  c #13440B",
"-  c #1B450B",
";  c #144C0A",
":  c #1A4D0D",
">  c #0C5403",
",  c #0D5B02",
"<  c #0E5409",
"1  c #0C5A08",
"2  c #135304",
"3  c #195505",
"4  c #145B05",
"5  c #1A5B05",
"6  c #15530C",
"7  c #1A550C",
"8  c #145B0B",
"9  c #1B5C0B",
"0  c #144B12",
"q  c #1B4C13",
"w  c #194A17",
"e  c #175414",
"r  c #1B5313",
"t  c #155B11",
"y  c #1D5C12",
"u  c #195D18",
"i  c #23590B",
"p  c #215D0D",
"a  c #254B18",
"s  c #225314",
"d  c #295716",
"f  c #235C14",
"g  c #2B5C15",
"h  c #25531A",
"j  c #235C1A",
"k  c #2A5C1D",
"l  c #315A15",
"z  c #315C1C",
"x  c #0E6504",
"c  c #146205",
"v  c #1C6405",
"b  c #146900",
"n  c #1C6B05",
"m  c #14620A",
"M  c #1D630C",
"N  c #176908",
"B  c #1D6B0C",
"V  c #1D7807",
"C  c #1C740B",
"Z  c #1D6412",
"A  c #1E6B12",
"S  c #1F681B",
"D  c #1D7415",
"F  c #216506",
"G  c #226D06",
"H  c #23630C",
"J  c #2A630C",
"K  c #236C0C",
"L  c #2A6D0D",
"P  c #30670F",
"I  c #227505",
"U  c #2B7607",
"Y  c #237A05",
"T  c #24740D",
"R  c #2A730D",
"E  c #25790C",
"W  c #2B7B0D",
"Q  c #307605",
"!  c #307C0C",
"~  c #246414",
"^  c #2A6413",
"/  c #246C13",
"(  c #2B6C14",
")  c #25631A",
"_  c #2B641B",
"`  c #256C19",
"'  c #2B6C1B",
"]  c #336E17",
"[  c #32651C",
"{  c #326C1D",
"}  c #257313",
"|  c #2B7414",
" . c #247A14",
".. c #2C7B14",
"X. c #25731A",
"o. c #2C731B",
"O. c #267C1B",
"+. c #2D7A1C",
"@. c #327414",
"#. c #337C15",
"$. c #397A17",
"%. c #32741B",
"&. c #337B1C",
"*. c #3A7C1C",
"=. c #1E5820",
"-. c #265524",
";. c #265D21",
":. c #2B5B23",
">. c #305A22",
",. c #2D6422",
"<. c #256C21",
"1. c #2C6C23",
"2. c #286827",
"3. c #2C642A",
"4. c #336625",
"5. c #3A6725",
"6. c #326C23",
"7. c #32662A",
"8. c #346B2B",
"9. c #3B6C2D",
"0. c #2D7422",
"q. c #297425",
"w. c #2E7B21",
"e. c #337423",
"r. c #3B7524",
"t. c #347B23",
"y. c #3B7C24",
"u. c #34732B",
"i. c #3B752B",
"p. c #347A2A",
"a. c #3B7B2B",
"s. c #346C32",
"d. c #3B6C34",
"f. c #3F6B38",
"g. c #377635",
"h. c #3D7433",
"j. c #3C7B33",
"k. c #417D25",
"l. c #417528",
"z. c #437C2C",
"x. c #427535",
"c. c #437B34",
"v. c #487C36",
"b. c #447C3C",
"n. c #497D3C",
"m. c #3E7741",
"M. c #4B7F43",
"N. c #2D8009",
"B. c #33850D",
"V. c #2D8314",
"C. c #2E831A",
"Z. c #2B871B",
"A. c #348214",
"S. c #388A15",
"D. c #3B8C17",
"F. c #34831C",
"G. c #3B841D",
"H. c #348B1C",
"J. c #3B8B1C",
"K. c #3C941E",
"L. c #2F8223",
"P. c #358423",
"I. c #3A8323",
"U. c #348923",
"Y. c #3C8A24",
"T. c #35842B",
"R. c #3B832B",
"E. c #358828",
"W. c #3C8B2A",
"Q. c #3C9224",
"!. c #3C942E",
"~. c #378631",
"^. c #3C8333",
"/. c #3D8B33",
"(. c #3F873B",
"). c #3D9534",
"_. c #438C1C",
"`. c #46931B",
"'. c #428425",
"]. c #428B25",
"[. c #42842D",
"{. c #4A8128",
"}. c #438C2C",
"|. c #4A8C2B",
" X c #439224",
".X c #499224",
"XX c #44922D",
"oX c #4B922B",
"OX c #459C2C",
"+X c #4B9B2B",
"@X c #438333",
"#X c #4A8535",
"$X c #448C33",
"%X c #4B8C33",
"&X c #43823C",
"*X c #4D863B",
"=X c #44893B",
"-X c #4A8D39",
";X c #52853C",
":X c #528A3D",
">X c #439234",
",X c #4C9535",
"<X c #459A33",
"1X c #4A9A33",
"2X c #44923A",
"3X c #4C933C",
"4X c #4D9B39",
"5X c #519533",
"6X c #539B36",
"7X c #53943C",
"8X c #53993C",
"9X c #4BA72D",
"0X c #58A437",
"qX c #53A43F",
"wX c #478342",
"eX c #4D8943",
"rX c #528C42",
"tX c #5B8D45",
"yX c #58824C",
"uX c #518C4A",
"iX c #4E9443",
"pX c #4D984B",
"aX c #529342",
"sX c #599643",
"dX c #539B45",
"fX c #58994A",
"gX c #5B9154",
"hX c #5D9C52",
"jX c #6A9853",
"kX c #689D55",
"lX c #4BA144",
"zX c #55A344",
"xX c #53A54C",
"cX c #5EA14D",
"vX c #5DAB4B",
"bX c #5BA753",
"nX c #62A649",
"mX c #66B34E",
"MX c #63A451",
"NX c #69A757",
"BX c #6CB656",
"VX c #659F68",
"CX c #66A663",
"ZX c #6CB563",
"AX c #76B66F",
/* pixels */
"E Q.G.M i M aX6 # '.d %.^ ` $ [ * ' T.z.| / , ` c.3 y.) a.j u I t.6X<XU.E.C ,Xq jXI.] $.W.P.oX@.`.1X",
"I Y.8 0 a 9 a.9 c ` 8.O.5 I.{.] cX| M V.9 #X{ i.z 8 [.9 ( p.# e.p B 4 / } P.o l.u Z.F.Q.E.j.]...6X|.",
"D P.Z u.6 j.#XI.t.K $ c ( S.G NX#Xg ; / H J ~ h.gX` &.G.G.p.1.O._ 8.' ] &.W.| ,XXX..P.b I aX<.}.5X@.",
"> ~ @.^ a.j.~ > .Xi.e 5 e.Y.+X%XR.*.= W I.A s.:.{ K 1.T Y.Q.I.2XP.j.+ ' u.i.2 H.H.F.5 5 M c.e.8 @.^ ",
"@.S &.q u.S p &.].} BX..+.W D.E @X$.( B.t.&.t.a.$X7 i } t.X.t.q.2X2 > iX` }.C E V.f k s d ~ T / u.' ",
"&.) y.%.a.( k I.1Xc b t.E.R.2 y g.K U 2X8X, A f <.,.( Z.xXj.bX) n B F.8 |.v O./ B j : x.y ~ ( } / I.",
"{.w ( c.7 @ y H.).8.pX2 O.L.( 9 { [.~ fX .A.qX#.rX&X6. .V.8 zXI x O...y.M Q.#.B E o.%.%.' Z y.e.y.~ ",
"}.) &.k.' g.y  .U.cX` ,XV.Z.H.1X} T / T Y.@./ dX+.$X~ ` I $Xo.O.q.T.| | $.&.>X$X[.kX$.#.4.Z v ~ < s ",
"] %.4 ].| $X#X~ R %.P.-XD iXT X.| n ( P } ].{ sX/ ..a.H }.w.> U.X._ wXr 6.o. XJ.0X# 8X,X,XXXH | { 3 ",
"y.o./.r.( ..H aXk.].X.B Z {   2.^ * : l.*.[.7X( R 5 mXR.'.R.+.@.( i.n.: H ].G.B.N.6X6.*.U.8 j u h ) ",
"F.t.e.y 5 +.+.%.nX5X0.e.` H s 8.k s s 5 1X].#.E.X.t.Z i._.o.K { a.t.fX[.I.Y.T E A t.t._.&.7 _ u.a 3 ",
"3 H  XD P.H y.( K U.C w.&.' }.y.O.U.U.E...( ' 3.j > 0.R.[.B ~ ) e...| K 9 _ x...H ( n A.R.F.,XR.tX:X",
"| L 5 &X,.* ^ o.NXK %.b.f X.<X} r.) ~ I.f s / ` H c ` I.G.U '.XX1XN ( z.) b.~ c N %.v E @X[.-XY.G.| ",
"7 ~ ^ e.] R ' 5XM J.].&.}.G.G %Xg g ) q.f.: $X2 t.o.=Xu.y s 9 } 9 3 f 4.6.y ) K m 4.%.T.( 3 i...OXzX",
"6 d ) ( (.+.6 y + X ( } / 8 1.& ; t.R.rXyXg ' y.B q.u.6 -.w . ' 6 1.wXh * t.NXv I.8./ R.XX+.O.1XP.X.",
"i.O s.I N ( CXg.. a O eX:X6 o._ k K @X!.p.@Xp.-Xy.M * j 7 r e.[.1XR.p.x.u.<.| K < ~ T #.$.].F ( A dX",
"iX;X< j.~ 5 Z $ u & e ) B |.7 NX|.A ;...Y pXcXwX_ A 9 3.s X.NX=X~.$X6X@Xy.h.NX< X.8 A | X.%.v 9 / { ",
"V.~ / s.$ y 9 e . 2 pX# X.Y.I.D.G.G.I.4 ~.bXXXj.  (.aX0.~ 9 ,.%.j aXzXzXXXS uX: 7 i 1.f 0.6.' E U.' ",
"o././.bXp.Z 1.` Z 3 B j P.U.aX.XoXn xX` *.6 ~ ) ~ g.W.E.y r ~ <X-XQ.{ ` ~.).e._ u +.2Xu 6 3 H `.t.!.",
"| / 8 ' t.u.y.U., 0 _ @.} =X#.*.v eX* 6 . ~ S ' I.eX..| ~ M.Y.G.8 $ ` $ e.j.1.~ e./ w.6 + ..F.7X}.}.",
"( @X) X t.u K C 8 0 z.>XZ % / 8.a.k.H ` i %XB ' J./ c Z r i f J _ 7 a h ~ q.dXo.M } < = i., zX[..XU ",
"Y.}.$XZ H.X.W.A j.^ M i.r.R.T ;Xr.0.E.#Xr.H.9 i v $XH r.{ j 2.L ( [.0.B |.G / #.( p._ f R.J.K k.S./ ",
"@Xo.M ~ ~ ..p r ) f _ r.'.}.&.B +.K | %.I.X.6 6 [.v 1.4.t 3.2.1 5 F.A.v.y.| 9 / J K [.l.( B L L } l.",
"e.e.2 8 ~ G e.a.[ :.gXp o.'.@.o.M [.` O.e.` L ^ #.Y ,Xf 9._ Z u.sX X+X6.].& ; & _ t./ ( 3 7 r ( &.%.",
"&.B t.%.#.! } ( d 9 e.y rX&.6X{.[.| @ * e.K ( { t.3Xw.O.{ # 6 k p Y G '.-Xa x.4.W.O.*.v 2.j | 2 MX5X",
"o.P.*.%.H %X+.P.c e.| : ^ T S.].,XO a q ' H.( 5 _ a...&.b.7 0.- 5 V.! Y.)   -X%.R.C.%.@X= $ ` M | }.",
"~ %.' L ~ ' @XzX) u 6.d.3 W n ..#X: b.}.F.V...Z d.|  XqX/ &.1.5.] oXk.' h.8.p 2 9 & { / ` T w.Z R Y.",
"%.1X| 5 1.M #. ...p.9 kXz.$.|.'.e.uX1.| o.j f ~ X.| #.R.+.].F.l.t.$.9.h.eX^ @Xy e.k ~ / NXG 0 i.8 _ ",
"} f [ B w.n 5 t.| [.Y.W.%.nX7XX rX&X9 7 8.u.i [.9 # o.%.J N.@.p.a.W uXaXX.=XB %.g ' t.B n c e.2X@ = ",
"~ e k ( o.9 Z %.K D.R L z.$.MXs e.} P.[.` y ( G K 4 M *.| n p $Xy.A.}.D.S.Y.#.,.gXu.Y.C ( o.o.7 & h ",
"^ f a.} 1X/ w.9 I.F.%.@X$X+.I.{.OX1XL ' f ) M F.4 L 5 f [.w.&.  & ] 6XG H.B 8.s q.j u 1 i i.m Z : f ",
"i.5.G x b H , 9 7 o.X.7 @ _ $.v +X#.+ f g.8.8 1 _ 3 g.,.0.a.6.* k   #XA.' 8 3.d.@.+.W.o.k / W.B M 2 ",
"i.h.~ M t.c.6 h.~ pXBX. ,.k 6.*.].M m.o a.8 dXX.,.~ R.{.Z + j a * e.Z ..aX( fXhXCX5 / 1 y...Y.N.> ) ",
"$ ^.I.5 ~ ;Xy.a.' u.$ r k f ' ( '.BXNX:.u.M > T.~ R.P.f o.y u.O / a.u 3X=XG.#X@Xy &X2 4 ' m K +., ; ",
"u Z N w.K / V.' # 2 =.o p t.6 e.aX@.y._ j n.) H > C O.h / iX4X1.8 { r.y [.'.*.O.w.hXX > 5.0.< m 2 X ",
"o.2.hXM 6 X.E.3X+ p 4 S 2 e.u $X7 I.Y ZX3XAXj 6 ' Z c.' [ a.E.4 e i Q.F.N o.Z X.3XZ 6 7 XXT.Z 6 M e.",
"}.<.,.` y ~ u.S @XM C +.r : R }.O.MXf X.vX9 y ) 8.2 j F.g n M < o }.|.$ 0 y c.e.1.) t._ ..B p.-.T o.",
"/.~._ f u.~ % =X' | | 8 . 1.oX9 y y ' 9 ` h.~ ~ rXL Z P.o./ y H 7 y @X6.p.= s R R y./.( R > q VX..$.",
"e.uXq.u.9./ ( o.[.4X%.p.i ~ Z r.q 2.r / ..a./  .3XU./ L Y.7 { { 8.7.R.o.+.r.~ #.X.M @.R v.( 5.' F.$X",
"%.y T.+.$XK %.K } 4 [ ~ v.-.i.| ( 9 H } E ` P.V...5 8 / v #.i.d s.&X> 8 H.L ;Xz.+.4 / J 5 } %.( n e.",
"..A @.9XW.c / ' > ( g eXk 8.Z A W.G./ rXG.f zXB e.v.4.n.&.Y.' v.6 5 [ ;XF.Y.' }.N e * i.o.` g ~ 4 MX",
"U L / +.q._ 8 ) 8 R ' ) 7.a.1.kX, A.3X%.%XX ,.@Xj z u.4 MX8Xw.' 6 ' j 5 n B.J.#X= >.6.[.F.$Xt.; k } ",
"5 2 8.y : k ,.M 0.F.R 5 < $X6 l J.D.OX[.= h 7.9 fX- ~ A t.G.&.@X$ 8.k _ E H.Y.6.  6.( Y.} 2 o.r _ v ",
"[ i P ` uXr e &.(.}.#.%.k / f.h +.Y V -X:.j dXL R.*X> ' @.J.Q.] 7X* jXtX[.|.y._ M._ 8 X.& & +.M @.O.",
"9.< vXw.T.*X(.o.o.#.n | =XhXb.5.| H k.~ 8.1.` }.G 0.a.Z B G R t.Y.$.y.@X6XrXk 2.e.y.9 1.1.H k.p.}.>X",
"~ / 0.t.G.' o.a.Y.K K O.U.Y.r.r.sXy.s 6 h.~ y 9 X.lX2X$X# ~ ~ I ].} U ` A.*X;X} 4X} a./ 9 t.../ , E ",
"W E.) X.#.p.<X=X> 3 H ^ #.Q | ZX,Xp.h.T.^.F.y.~ _ M M +.M v ] | #.-XpXW...#.D.K.G.| [.o.%.O.V.v o.A.",
"v _ %.W.Z Y.q.o.G.` ~ I.@.}.aXe.| Y.&.K.0X/ Y.o.y 2 0 ~ [.3 3 ( X.hX  = g @.G _.,XI E r.6 < > * g E ",
"* 7 _.N ) : a.r @.1 u.l.sXp.Z e f K %.].A.t.| ( 2 3 %.9 #.( 6 ^ t.p.* 9.- 4.$XI G.A.( H v I.p.6 H | ",
"z X.o.a.+ ` ( ^.Y./ x.: R.iX$ ' _ { _ @XW B.W F.9 M '.v } P.[.p / 8 h 4.a.y B M ' ' [ ) 3 5 } J I.Z "
};
